<svg id="home-mobile-definitions" 
    viewBox="0 0 238.12501 423.33333"
    xmlns="http://www.w3.org/2000/svg"
    xmlns:xlink="http://www.w3.org/1999/xlink"
    xmlns:svg="http://www.w3.org/2000/svg">
<defs>
    <symbol id="sunflower-mobile-definition"
        style="overflow:visible;stroke:#000000;stroke-width:0.75;"
        role="img"
        aria-label="Sunshine Daze: Hippie Stuff"
        transform="matrix(0.52916666,0,0,0.52916666,-11.018601,244.60207)">
        <path id="corolla-lower"
            style="fill:#cca400;transform-origin: 104% 72%;"
            d="m 257.098,378.446 c 1.657,184.744 -116.11,162.415 -46.942,-8.9 -69.168,171.315 -169.425,105.618 -39.962,-26.187 -129.462,131.806 -196.947,32.743 -26.9,-39.487 -170.048,72.23 -194.485,-45.118 -9.741,-46.775 -184.744,1.657 -162.415,-116.11 8.9,-46.942 C -28.861,140.987 36.836,40.73 168.641,170.193 36.835,40.731 135.898,-26.754 208.128,143.293 c -72.23,-170.048 45.118,-194.485 46.775,-9.741 -1.657,-184.744 116.109,-162.415 46.942,8.9 69.168,-171.314 169.425,-105.617 39.963,26.188 129.462,-131.806 196.947,-32.743 26.9,39.487 170.048,-72.23 194.485,45.118 9.741,46.775 184.744,-1.657 162.415,116.109 -8.9,46.942 171.315,69.168 105.618,169.425 -26.187,39.963 131.806,129.462 32.743,196.947 -39.487,26.9 72.228,170.046 -45.12,194.484 -46.777,9.739 z">
                <animateTransform
                    attributeName="transform"
                    attributeType="XML"
                    type="rotate"
                    from="0"
                    to="-360"
                    dur="360s"
                    repeatCount="indefinite"/>
        </path>
        <path id="corolla-upper"
            style="fill:#ffe477;transform-origin: 104% 72%;"
            d="M 232.111,376.098 C 196.067,557.3 85.326,511.429 187.969,357.815 85.327,511.431 0.57,426.673 154.185,324.03 0.57,426.673 -45.3,315.932 135.902,279.888 -45.3,315.932 -45.3,196.066 135.902,232.11 -45.3,196.068 0.57,85.327 154.185,187.97 0.57,85.327 85.327,0.569 187.97,154.185 85.327,0.569 196.068,-45.301 232.112,135.902 196.068,-45.3 315.934,-45.3 279.89,135.902 315.932,-45.3 426.673,0.569 324.03,154.185 426.673,0.569 511.43,85.327 357.815,187.97 c 153.616,-102.642 199.486,8.098 18.284,44.142 181.202,-36.044 181.202,83.822 0,47.778 181.202,36.044 135.331,146.784 -18.284,44.142 153.616,102.642 68.858,187.399 -33.785,33.785 102.642,153.616 -8.098,199.486 -44.142,18.284 36.044,181.199 -83.82,181.199 -47.777,-0.003 z">
                <animateTransform
                            attributeName="transform"
                            attributeType="XML"
                            type="rotate"
                            from="0"
                            to="360"
                            dur="600s"
                            repeatCount="indefinite"/>
        </path>
        <path id="bud-z1"
            style="fill:#ffda44"
            d="m 256,394.894 c -76.587,0 -138.894,-62.307 -138.894,-138.894 0,-76.587 62.307,-138.895 138.894,-138.895 76.587,0 138.895,62.308 138.895,138.895 0,76.587 -62.308,138.894 -138.895,138.894 z"/>
        <circle id="bud-z2"
            style="fill:#ee8700"
            cx="256"
            cy="256"
            r="118"/>
        <path id="bud-z3"
            style="fill:#cc7400"
            d="m 256,342.649 c -47.779,0 -86.649,-38.87 -86.649,-86.649 0,-47.779 38.871,-86.65 86.649,-86.65 47.778,0 86.65,38.871 86.65,86.65 0,47.779 -38.871,86.649 -86.65,86.649 z"/>
        <path id="bud-z4"
            style="fill:#aa6100;"
            d="m 256,311.302 c -30.494,0 -55.302,-24.808 -55.302,-55.302 0,-30.494 24.809,-55.303 55.302,-55.303 30.493,0 55.303,24.809 55.303,55.303 0,30.494 -24.809,55.302 -55.303,55.302 z"/>
    </symbol>
    </defs>
    <use id="sunflower-mobile" 
            href="#sunflower-mobile-definition"/>
</svg>