<svg id="home-desktop-definitions" 
    viewBox="0 0 508 285.75"
    xmlns="http://www.w3.org/2000/svg"
    xmlns:xlink="http://www.w3.org/1999/xlink"
    xmlns:svg="http://www.w3.org/2000/svg">
    <defs>
        <symbol id="sunflower-desktop-definition"
            style="overflow: visible"
            role="img"
            aria-label="Sunshine Daze: Hippie Stuff">
            <g id="petal"
                style="stroke:#000000;stroke-width:0.25;filter:drop-shadow(0 0 1rem #880d4e);">
                <g id="leaf-bottom"
                    style="fill: #00813d;">
                    <path id="leaf-z4" 
                        d="m 371.02678,99.62928 c 14.15075,-27.026729 0.0817,-59.916095 3.60544,-36.620369 3.52381,23.295728 63.81337,17.627766 43.76926,39.904049 -6.78498,7.54057 107.57527,60.97641 106.31525,73.94701 -1.27852,13.16107 -59.66073,46.27013 -44.85064,79.26548 11.87859,26.46425 -67.73448,-54.63656 -67.73448,-54.63656 z"/>
                    <path id="leaf-z3"
                        d="M 399.03093,134.65221 C 448.9083,90.797314 466.40422,109.58484 447.65574,85.723724 428.90726,61.862611 435.93291,70.580425 435.93291,70.580425 c 0,0 56.9727,36.735165 58.83322,56.311715 1.86057,19.57657 -11.52146,91.43433 -11.52146,91.43433 l -48.03812,-47.73038 z"/>
                    <path id="leaf-z2"
                        d="m 278.09089,266.06145 c -29.48004,-13.93967 -39.07999,14.80111 -61.26461,-22.34821 -22.18462,-37.14932 -17.65058,-48.9943 -17.65058,-48.9943 0,0 14.66445,39.53621 45.36341,25.39231 14.32791,-6.60129 93.3465,-12.86191 93.3465,-12.86191 l 83.85235,63.20555 z"/>
                    <path  id="leaf-z1"
                        d="m 272.79246,287.67622 c -22.38906,9.89174 -80.05112,5.89026 -85.45484,-20.36792 -5.40372,-26.25816 0.92873,-7.65522 9.82802,-3.53971 8.89929,4.11552 58.30062,10.53273 62.5648,0.45517 1.49009,-3.52156 193.17435,3.74956 193.17435,3.74956 0,0 -46.75739,14.49038 -46.48053,33.5761 0.69716,48.05932 -92.66834,-31.97132 -133.6318,-13.8732 z"/>
                    <path id="leaf-fill"
                        style="fill: #00813d;"
                        d="m 374.30411,108.39966 52.20626,4.54266 67.09751,39.09821 0.31348,59.7086 -12.85944,49.7801 -51.41936,13.60113 -23.60504,-3.59293 -127.94663,-5.47598 31.78384,-55.93208 z" />
                    <path id="stem" 
                        d="M 506.51105,283.87878 C 495.58945,280.97244 340.83402,275.95282 318.6762,234.61516 296.51835,193.27751 316.65338,177.25834 272.47635,160.5554 228.29936,143.85246 183.87832,180.15927 147.35558,126.8814 110.83284,73.603545 48.881487,129.94755 22.661228,65.91211 -3.5590316,1.8766642 -0.96575892,-2.9182475 -0.96575892,-2.9182475 c 0,0 142.19756892,11.9665322 174.11607892,51.2164655 31.91851,39.249935 19.70104,65.094772 90.64703,57.614712 70.94599,-7.480049 111.57909,-24.015528 142.5343,42.93953 30.95522,66.95506 74.20634,20.43233 86.69743,59.90915 12.49108,39.47681 13.48197,75.11717 13.48197,75.11717 z"/>
                </g>
                <g id="leaf-middle"
                    style="filter: drop-shadow(0 0 0.10rem #880d4e);">
                <path id="leaf-middle-path"
                    style="fill: #00d97c;"
                    d="m 505.49166,284.18398 c 0,0 10.42954,-15.59224 -34.46343,-80.81123 C 426.13529,138.15376 347.34761,159.58128 330.27627,130.41278 313.2049,101.24427 241.10552,71.314206 212.83564,71.412155 184.56577,71.510103 135.8284,71.014372 116.46879,52.890562 97.109184,34.766755 76.222594,-5.4387117 48.287876,-4.513009 20.353157,-3.5873065 0.49986808,-1.5834516 0.49986808,-1.5834516 c 0,0 38.42834292,4.8970789 41.74419692,32.0088996 3.315854,27.111819 -2.341589,46.777137 38.328531,68.560965 40.670124,21.783827 48.097424,13.139217 99.991674,26.494807 51.89424,13.35559 49.52466,89.95212 108.4907,80.68138 109.18907,-17.1669 216.43669,78.02138 216.43669,78.02138 z"/>
                </g>
                <g id="leaf-top"
                    style="filter: drop-shadow(0 0 0.05rem #880d4e);">
                <path id="leaf-top-path"
                    style="fill: #81efc0; "
                    d="m 505.49166,284.18398 c 0,0 2.24428,-46.91857 -64.81124,-85.35408 -67.05555,-38.43551 -96.55231,21.18118 -140.29434,-35.00146 -43.74201,-56.18263 -19.9186,-53.45625 -83.97646,-61.52556 C 152.35174,94.233568 169.56684,110.7595 124.95728,75.656172 80.347716,40.552851 106.29578,21.250145 53.37575,10.727146 0.45571854,0.20414734 0.45571854,0.20414734 0.45571854,0.20414734 c 0,0 40.46801246,9.51585976 69.21586646,36.55040366 C 98.41944,63.789096 40.884477,77.09324 89.648058,92.795703 138.41164,108.49816 245.53962,104.97891 255.96353,129.89797 c 10.42391,24.91907 -13.59712,97.05965 57.12189,90.61775 70.71903,-6.44191 88.38131,-50.38032 140.39377,6.64397 52.01247,57.02429 52.01247,57.02429 52.01247,57.02429 z" />
                </g>
            </g>
            <g id="bud" 
                style="stroke:#000000;stroke-width:0.75;">
                <g transform="matrix(0.5953125,0,0,0.5953125,240.20207,88.1962)">
                    <path id="corolla-lower"
                        style="transform-origin: 47.2502% 90%; fill:#cca400;"
                        d="m 257.098,378.446 c 1.657,184.744 -116.11,162.415 -46.942,-8.9 -69.168,171.315 -169.425,105.618 -39.962,-26.187 -129.462,131.806 -196.947,32.743 -26.9,-39.487 -170.048,72.23 -194.485,-45.118 -9.741,-46.775 -184.744,1.657 -162.415,-116.11 8.9,-46.942 C -28.861,140.987 36.836,40.73 168.641,170.193 36.835,40.731 135.898,-26.754 208.128,143.293 c -72.23,-170.048 45.118,-194.485 46.775,-9.741 -1.657,-184.744 116.109,-162.415 46.942,8.9 69.168,-171.314 169.425,-105.617 39.963,26.188 129.462,-131.806 196.947,-32.743 26.9,39.487 170.048,-72.23 194.485,45.118 9.741,46.775 184.744,-1.657 162.415,116.109 -8.9,46.942 171.315,69.168 105.618,169.425 -26.187,39.963 131.806,129.462 32.743,196.947 -39.487,26.9 72.228,170.046 -45.12,194.484 -46.777,9.739 z" >
                        <animateTransform
                            attributeName="transform"
                            attributeType="XML"
                            type="rotate"
                            from="0"
                            to="-360"
                            dur="600s"
                            repeatCount="indefinite"/>
                    </path>
                    <path id="corolla-upper"
                        style="transform-origin: 47.2502% 90%; fill:#ffe477;"
                        d="M 232.111,376.098 C 196.067,557.3 85.326,511.429 187.969,357.815 85.327,511.431 0.57,426.673 154.185,324.03 0.57,426.673 -45.3,315.932 135.902,279.888 -45.3,315.932 -45.3,196.066 135.902,232.11 -45.3,196.068 0.57,85.327 154.185,187.97 0.57,85.327 85.327,0.569 187.97,154.185 85.327,0.569 196.068,-45.301 232.112,135.902 196.068,-45.3 315.934,-45.3 279.89,135.902 315.932,-45.3 426.673,0.569 324.03,154.185 426.673,0.569 511.43,85.327 357.815,187.97 c 153.616,-102.642 199.486,8.098 18.284,44.142 181.202,-36.044 181.202,83.822 0,47.778 181.202,36.044 135.331,146.784 -18.284,44.142 153.616,102.642 68.858,187.399 -33.785,33.785 102.642,153.616 -8.098,199.486 -44.142,18.284 36.044,181.199 -83.82,181.199 -47.777,-0.003 z">
                        <animateTransform
                            attributeName="transform"
                            attributeType="XML"
                            type="rotate"
                            from="0"
                            to="360"
                            dur="360s"
                            repeatCount="indefinite"/>
                    </path>
                    <path id="bud-z1"
                        style="fill:#ffda44"
                        d="m 256,394.894 c -76.587,0 -138.894,-62.307 -138.894,-138.894 0,-76.587 62.307,-138.895 138.894,-138.895 76.587,0 138.895,62.308 138.895,138.895 0,76.587 -62.308,138.894 -138.895,138.894 z"/>
                    <circle id="bud-z2"
                        style="fill:#ee8700"
                        cx="256"
                        cy="256"
                        r="118" />
                    <path id="bud-z3"
                        style="fill:#cc7400"
                        d="m 256,342.649 c -47.779,0 -86.649,-38.87 -86.649,-86.649 0,-47.779 38.871,-86.65 86.649,-86.65 47.778,0 86.65,38.871 86.65,86.65 0,47.779 -38.871,86.649 -86.65,86.649 z" />
                    <path id="bud-z4"
                        style="fill:#aa6100;"
                        d="m 256,311.302 c -30.494,0 -55.302,-24.808 -55.302,-55.302 0,-30.494 24.809,-55.303 55.302,-55.303 30.493,0 55.303,24.809 55.303,55.303 0,30.494 -24.809,55.302 -55.303,55.302 z"
                        />
                </g>
            </g>
        </symbol>
    </defs>
    <use id="sunflower-desktop" href="#sunflower-desktop-definition"/>
</svg>