<svg id="words-definition" 
    viewBox="0 0 508 285.75"
    xmlns="http://www.w3.org/2000/svg"
    xmlns:xlink="http://www.w3.org/1999/xlink"
    xmlns:svg="http://www.w3.org/2000/svg">

    <defs>
        <symbol id="clothing-word">
            <path id="clothing-c" 
                d="m 8.7502847,18.680655 q 0.00674,0.08737 -0.029573,0.174214 -0.034258,0.08398 -0.1021711,0.178535 -0.05137,0.04129 -0.1133148,0.04892 -0.061945,0.0076 -0.1066182,-0.0027 -0.041808,-0.0083 -0.064731,-0.02477 -0.060171,-0.04322 -0.086687,-0.09701 -0.021592,-0.0546 0.00605,-0.117272 l 0.024696,-0.03438 q 0.047334,-0.0659 0.063877,-0.119171 0.018601,-0.05614 -0.015703,-0.111178 -0.060171,-0.04322 -0.1360785,-0.02824 -0.073849,0.01211 -0.130586,0.06692 -0.053428,0.04415 -0.1122229,0.101821 -0.056737,0.0548 -0.097896,0.11211 -0.04116,0.05731 -0.0688,0.119979 -0.024775,0.06473 -0.031915,0.129097 0.00182,0.08818 0.032372,0.166585 0.03261,0.07554 0.092782,0.11876 0.034384,0.0247 0.087653,0.04124 0.038943,0.0063 0.1300633,-0.02385 0.093178,-0.03297 0.1361579,-0.0021 0.025788,0.01852 0.043343,0.0485 -0.029209,0.191849 -0.1105153,0.389714 -0.079249,0.194999 -0.2047856,0.369782 -0.1358267,0.18911 -0.3158043,0.324792 -0.1750543,0.134874 -0.3379659,0.174228 -0.1600463,0.04141 -0.2776824,0.01773 -0.115578,-0.02655 -0.2244594,-0.104752 -0.02946,-0.0255 -0.046652,-0.03785 l -0.025788,-0.01852 q -0.171918,-0.123479 -0.2324998,-0.323355 -0.057716,-0.197818 0.020156,-0.493704 0.07993,-0.298752 0.326888,-0.642589 0.220204,-0.306587 0.5049798,-0.527705 0.2896992,-0.221925 0.6135438,-0.328113 0.1403533,-0.03818 0.2891436,-0.0095 0.1537137,0.02788 0.2740563,0.114314 0.1919751,0.137885 0.2266898,0.349586 z"/>
            <path id="clothing-l"
                d="m 9.6355306,19.106743 q -0.047235,0.0553 -0.2063451,0.19283 -0.1575372,0.134372 -0.1890366,0.165979 -0.028341,0.03318 -0.055097,0.07109 -0.026756,0.03791 -0.05034,0.08528 -0.039307,0.07895 -0.047073,0.14996 -0.00304,0.06942 0.030265,0.168759 0.066346,0.04879 0.1277992,0.0045 0.064611,-0.04271 0.1181901,-0.07909 0.053579,-0.03638 0.1041073,-0.01122 0.037896,0.01887 0.066373,0.06457 0.074545,0.230213 -0.046385,0.552265 Q 9.3701361,20.747961 9.253856,21.021098 9.0746176,21.381114 8.8981186,21.498164 8.7231919,21.612056 8.530673,21.587144 8.45488,21.549414 8.284373,21.480284 8.1138659,21.411154 8.0349149,21.371852 7.8454326,21.277512 7.7442538,21.156208 7.6430749,21.0349 7.6474678,20.836106 q 0.026674,-0.08524 0.073842,-0.179981 0.097481,-0.195799 0.4502489,-0.564001 0.3543406,-0.37136 0.4471043,-0.557684 0.050313,-0.101057 0.040366,-0.381866 -0.00995,-0.280809 0.038793,-0.378708 0.036162,-0.07264 0.1086754,-0.107468 0.074086,-0.03799 0.1971546,-0.03189 0.099431,0.02192 0.184671,0.04859 0.088398,0.02825 0.1705071,0.06912 0.094741,0.04717 0.1626863,0.108581 0.072675,0.05983 0.1280424,0.146505 0.015844,0.03941 0.00484,0.06152 -0.00628,0.02052 -0.018867,0.0379 z" />
            <path id="clothing-o" 
                d="m 11.00055,19.574684 q 0.129339,0.27878 0.126298,0.653842 -0.002,0.371686 -0.217834,1.084075 l -0.09922,0.327496 q -0.09994,0.22038 -0.260857,0.374366 -0.15652,0.151632 -0.36983,0.186536 -0.1825167,0.01843 -0.3783392,-0.04089 -0.1350499,-0.04091 -0.227132,-0.101984 -0.093105,-0.05769 -0.1936865,-0.224552 -0.099559,-0.170233 -0.1034696,-0.473679 -0.00391,-0.303446 0.096326,-0.634318 0.03989,-0.131674 0.095023,-0.277161 0.059532,-0.147839 0.1818732,-0.405665 0.2795762,-0.423987 0.4456091,-0.594854 0.167056,-0.174244 0.337299,-0.152158 0.170242,0.02209 0.21178,0.03098 0.04491,0.0099 0.08205,0.02117 0.09791,0.02966 0.162983,0.08255 0.0661,0.04951 0.111118,0.144246 z m -0.467026,0.142346 q -0.06077,-0.01841 -0.1153,0.02773 -0.0535,0.04277 -0.08337,0.0927 -0.02987,0.04993 -0.05268,0.113055 -0.02281,0.06313 -0.03304,0.09689 l -0.04603,0.151931 q -0.01534,0.05064 0.02272,0.09535 0.04246,0.04235 0.113363,0.06383 0.06752,0.02046 0.122975,0.0078 0.05985,-0.01504 0.07519,-0.06569 l 0.04194,-0.138426 q 0.0225,-0.07428 0.03007,-0.123591 0.01094,-0.04829 0.01114,-0.121952 0.0012,-0.07704 -0.01249,-0.129112 -0.01371,-0.05207 -0.07448,-0.07048 z"/>
            <path id="clothing-t"
                d="m 12.07175,20.188315 q -0.0041,-0.04689 -0.01667,-0.08427 -0.01207,-0.04088 -0.04259,-0.07723 -0.02249,-0.01741 -0.04989,1.21e-4 -0.0239,0.01802 -0.03482,0.04499 -0.03531,0.251534 0.01634,0.568712 0.05215,0.313685 0.104293,0.62737 0.05215,0.313685 0.01683,0.565219 -0.03188,0.227079 -0.109846,0.37644 -0.07797,0.149361 -0.254914,0.217142 -0.129079,0.05669 -0.296768,0.03315 -0.111793,-0.0157 -0.216168,-0.05885 -0.101373,-0.03917 -0.198822,-0.106284 -0.101983,-0.08556 -0.128211,-0.203243 -0.02623,-0.117678 -0.0046,-0.271393 0.01422,-0.101312 0.04389,-0.211143 0.03016,-0.113325 0.04499,-0.16824 0.04315,-0.104376 0.306472,-0.559016 0.263809,-0.458135 0.303536,-0.74111 0.0024,-0.04241 0.0053,-0.06337 l 0.0059,-0.04192 q 0.0034,-0.02445 -0.01808,-0.04885 -0.02151,-0.02439 -0.05841,-0.01533 -0.03831,0.0445 -0.09771,0.239212 -0.05541,0.191714 -0.173582,0.221435 -0.129811,-0.0396 -0.141084,-0.162301 0.0054,-0.03843 0.01465,-0.129751 0.0097,-0.09482 0.01711,-0.147218 0.02256,-0.160702 0.07368,-0.271084 0.0551,-0.113385 0.169228,-0.165048 0.02991,-0.01005 0.170632,0.0026 0.144215,0.01312 0.290943,0.03372 0.18865,0.02648 0.303446,0.04616 0.114796,0.01968 0.172714,0.0385 0.09549,0.08109 0.113747,0.204774 0.02175,0.124175 -0.0018,0.291864 -0.0064,0.04542 -0.02262,0.135757 -0.01624,0.09034 -0.02164,0.12877 -0.04462,0.114856 -0.18032,0.11718 -0.08243,-0.0472 -0.09867,-0.15991 -0.0053,-0.13968 -0.0065,-0.207528 z" />
            <path id="clothing-h"
                d="m 13.023045,19.765078 q 0.0335,0.04096 0.03631,0.107932 0.0016,0.03877 -0.0189,0.138499 -0.017,0.09958 -0.01582,0.127776 0.0022,0.05287 0.02823,0.08356 0.02938,0.02701 0.107666,0.04138 0.02115,-8.89e-4 0.07417,4.15e-4 0.05302,0.0013 0.08122,1.18e-4 0.08107,-0.0034 0.122475,-0.02633 0.04493,-0.02307 0.04242,-0.08299 -0.0015,-0.03525 -0.0231,-0.129673 -0.02162,-0.09443 -0.02384,-0.147296 -0.003,-0.07049 0.01979,-0.11735 0.02275,-0.04686 0.08868,-0.07434 0.05947,-0.01309 0.126147,-0.02295 0.06667,-0.0099 0.133642,-0.01268 0.123363,-0.0052 0.216189,0.01916 0.09283,0.02435 0.141461,0.08939 0.05216,0.0649 0.05497,0.131865 0.0027,0.06344 -0.08625,0.300218 -0.08554,0.233102 -0.07725,0.430484 0.01022,0.243202 0.183992,0.765535 0.177151,0.51866 0.181445,0.620875 0.0039,0.09164 -0.0077,0.152154 -0.01158,0.06051 -0.06457,0.143948 -0.04946,0.08329 -0.150051,0.126355 -0.09706,0.04292 -0.230999,0.04855 -0.05287,0.0022 -0.119987,0.0015 -0.06726,-0.0042 -0.141579,-0.0082 -0.07431,-0.0039 -0.143801,-0.06105 -0.06949,-0.05711 -0.12665,-0.1571 -0.05954,-0.156389 -0.06753,-0.346721 -0.0062,-0.148036 0.04579,-0.506841 0.05186,-0.36233 0.04594,-0.503317 -0.0061,-0.144512 -0.0462,-0.259345 -0.03661,-0.114981 -0.1353,-0.110835 -0.144512,0.0061 -0.199544,0.124903 -0.01641,0.113678 -0.01211,0.215894 0.0073,0.172709 0.104021,0.542918 0.10029,0.370061 0.105769,0.500474 0.0043,0.102215 -0.0092,0.201646 -0.01362,0.09591 -0.05823,0.210769 -0.04475,0.111338 -0.15239,0.154701 -0.104111,0.04321 -0.27682,0.05047 -0.197382,0.0083 -0.319442,-0.03954 -0.122208,-0.05136 -0.177477,-0.190273 -0.05542,-0.142439 -0.06104,-0.276376 -0.0074,-0.176234 0.120077,-0.587642 0.127481,-0.411409 0.115338,-0.700432 -0.0061,-0.144512 -0.121171,-0.446863 -0.111723,-0.306025 -0.1135,-0.348321 -0.0034,-0.08107 0.04724,-0.136159 0.05065,-0.05509 0.166074,-0.08113 0.115426,-0.02604 0.235265,-0.03107 0.232628,-0.0098 0.356169,0.07331 z" />
            <path id="clothing-i" 
                d="m 15.051917,19.469376 q 0.034,0.03946 0.05994,0.09154 0.02594,0.05208 0.03506,0.09342 0.02508,0.113682 -0.04152,0.384876 -0.06316,0.270434 -0.04111,0.370336 0.0114,0.05167 0.03658,0.100307 0.02442,0.04519 0.252676,0.424726 0.2317,0.378778 0.28643,0.626812 0.04029,0.18258 0.01512,0.379603 -0.03424,0.12316 -0.142648,0.204883 -0.105725,0.07752 -0.257301,0.110966 -0.210139,0.04637 -0.415928,-0.0022 -0.203105,-0.05272 -0.282499,-0.183323 -0.04768,-0.101471 -0.07353,-0.218598 -0.05093,-0.230809 0.019,-0.683371 0.06993,-0.452561 0.0228,-0.666145 -0.01672,-0.07579 -0.04799,-0.15198 -0.03126,-0.07619 -0.06906,-0.13288 -0.03856,-0.06013 -0.127931,-0.170466 -0.08937,-0.110334 -0.107618,-0.193012 -0.01368,-0.06201 0.0048,-0.141953 0.02193,-0.0807 0.13338,-0.148649 0.114895,-0.06871 0.280251,-0.105192 0.158466,-0.03497 0.292769,-0.03209 0.134303,0.0029 0.168299,0.04234 z"/>
            <path id="clothing-n" 
                d="m 15.731301,19.234716 q 0.228488,0.177341 0.472977,0.496736 0.243158,0.316128 0.366734,0.479092 0.122245,0.159697 0.151646,0.147712 0.01633,-0.0067 0.0043,-0.03606 -0.110531,-0.271143 -0.280467,-0.510449 -0.168,-0.243906 -0.290724,-0.37674 -0.124054,-0.136102 -0.133376,-0.15897 -0.0293,-0.07187 -0.0037,-0.158511 0.0289,-0.08797 0.09871,-0.131671 0.07174,-0.04829 0.124616,-0.07747 0.05481,-0.03377 0.12341,-0.06174 0.104537,-0.04261 0.20279,-0.04457 0.09692,-0.0052 0.187684,0.04921 0.03038,0.03714 0.05302,0.09268 0.03729,0.09147 0.02743,0.385022 -0.01119,0.290286 0.03542,0.404623 0.01731,0.04247 0.0299,0.064 0.0839,0.205807 0.402212,0.594157 0.318314,0.388351 0.387562,0.558223 0.03196,0.0784 0.05146,0.154267 0.0195,0.07586 0.02532,0.16492 -0.02757,0.09124 -0.09592,0.157201 -0.06835,0.06596 -0.163089,0.10458 -0.06207,0.0253 -0.113734,0.03874 -0.0484,0.01211 -0.194321,0.03731 -0.126572,-0.02079 -0.230173,-0.134749 -0.109053,-0.146027 -0.162549,-0.211841 -0.183981,-0.283106 -0.381154,-0.579883 -0.193907,-0.298109 -0.392515,-0.514298 -0.01513,-0.0091 -0.02892,-0.01488 -0.0138,-0.0058 -0.02553,0.0028 -0.05843,0.08096 -0.0038,0.2149 0.01465,0.03593 0.03849,0.07574 0.02251,0.03654 0.20019,0.257451 0.177676,0.220913 0.505916,0.624265 0.0506,0.124138 0.04228,0.253249 -0.0097,0.125844 -0.09457,0.263319 -0.09001,0.05955 -0.14095,0.08413 -0.0496,0.02784 -0.128007,0.0598 -0.140472,0.05726 -0.253852,0.05015 -0.102851,2.1e-5 -0.175948,-0.0578 -0.07116,-0.06242 -0.166295,-0.183647 -0.01525,-0.02807 -0.02724,-0.05747 -0.01332,-0.03267 -0.01998,-0.049 -0.07724,-0.189473 -0.111947,-0.685815 -0.03604,-0.49961 -0.110615,-0.682549 -0.04528,-0.11107 -0.123223,-0.208824 -0.07468,-0.09908 -0.188558,-0.18219 -0.09428,-0.09109 -0.135187,-0.135373 -0.04224,-0.04754 -0.0702,-0.116148 -0.02397,-0.0588 -0.02108,-0.117125 0.03797,-0.103101 0.12653,-0.184917 0.08856,-0.08181 0.206161,-0.129756 0.107804,-0.04395 0.206057,-0.0459 0.100188,-0.0066 0.196756,0.03408 z"/>
            <path id="clothing-g" 
                d="m 17.607911,18.288212 q 0.06939,0.0094 0.132536,0.06085 0.06417,0.04655 0.10665,0.111505 0.02896,0.04429 0.03851,0.07177 0.0095,0.02748 0.02295,0.06087 0.01147,0.03043 -0.02633,0.101529 -0.03679,0.06621 -0.104691,0.110624 -0.06495,0.04248 -0.123665,0.04294 -0.06064,-0.0025 -0.101193,-0.06449 l -0.02896,-0.04429 q -0.02703,-0.04133 -0.04941,-0.05621 -0.02237,-0.01487 -0.05576,-0.0015 -0.03236,0.0085 -0.03827,0.01238 -0.04724,0.0309 -0.05563,0.0954 -0.0054,0.06257 0.0085,0.141953 0.01398,0.07938 0.04454,0.164775 0.03158,0.08051 0.07599,0.148417 0.05986,0.09152 0.125051,0.133193 0.06814,0.03974 0.138553,0.04427 0.07336,0.0026 0.129457,-0.03409 0.02952,-0.01931 0.04553,-0.05929 0.01601,-0.03998 0.01146,-0.07916 -0.0094,-0.0402 -0.04941,-0.05621 -0.03702,-0.01794 -0.08109,-0.01441 -0.02952,0.01931 -0.04429,0.02896 -0.04429,0.02896 -0.07052,0.0082 l -0.0251,-0.03838 q -0.02896,-0.04428 -0.0384,-0.08449 -0.0084,-0.04508 0.01248,-0.08404 0.03543,-0.02317 0.11026,-0.07633 0.07778,-0.05509 0.116165,-0.08019 0.100381,-0.06565 0.178962,-0.100186 0.0796,-0.03942 0.162844,-0.04749 0.05906,0.07097 0.109267,0.147732 0.056,0.08562 0.144598,0.246867 0.08962,0.156365 0.118587,0.200651 0.191612,0.241411 0.406397,0.51825 0.215806,0.271955 0.283389,0.375289 0.02317,0.03543 0.03453,0.07858 0.01431,0.04122 -0.05768,0.105168 -0.07086,0.04634 -0.143198,0.03886 -0.08006,-0.0193 -0.119131,-0.02747 -0.04631,0.14832 -0.126589,0.264051 -0.08027,0.115732 -0.216084,0.204556 -0.165334,0.108134 -0.349194,0.09771 -0.18386,-0.01042 -0.351154,-0.124419 -0.164229,-0.128646 -0.309611,-0.28648 -0.14436,-0.162717 -0.275665,-0.36348 -0.345643,-0.528478 -0.432817,-1.074252 -0.04117,-0.436759 0.268484,-0.710941 0.100381,-0.06565 0.219051,-0.0969 0.116738,-0.0342 0.229056,-0.0107 z"/>
        </symbol>
        <symbol id="accessory-word">
            <path id="accessory-a"
                d="m 9.2022812,18.884518 q 0.022506,0.0998 -0.026414,0.173183 -0.035222,0.05284 -0.1604602,0.12622 -0.1203455,0.07241 -0.1594819,0.118393 -0.1007765,0.09393 -0.1633943,0.187862 -0.121322,0.18199 -0.1731736,0.45693 -0.049895,0.272005 -0.092941,0.527376 -0.066528,0.303314 -0.2093744,0.517593 -0.080229,0.120349 -0.1643731,0.17025 -0.084144,0.0499 -0.1898149,0.03034 -0.103714,-0.0225 -0.2142774,-0.06653 -0.1076281,-0.04207 -0.1927526,-0.09882 -0.090995,-0.06066 -0.1467668,-0.12328 -0.05088,-0.0636 -0.064579,-0.157526 -0.010765,-0.09197 0.0225,-0.20547 0.0362,-0.111542 0.1066449,-0.217214 0.086099,-0.129154 0.3502705,-0.398228 0.2641712,-0.269073 0.3326594,-0.371809 0.05479,-0.08219 0.065552,-0.168291 0.010761,-0.0861 -0.055773,-0.138936 -0.067512,-0.04501 -0.1340458,-0.04696 -0.061641,-0.0029 -0.1037128,0.0411 -0.039136,0.04599 -0.059683,0.07045 -0.017611,0.02642 -0.029352,0.04403 -0.093927,0.140896 -0.2152462,0.450082 -0.1164275,0.308208 -0.1986133,0.431492 -0.068488,0.102736 -0.1438261,0.171228 -0.072402,0.07045 -0.1731797,0.12622 -0.095885,0.05479 -0.2172112,0.02055 -0.1213259,-0.03424 -0.2416743,-0.114471 -0.067513,-0.04501 -0.1242625,-0.0998 -0.055771,-0.0499 -0.088061,-0.109583 -0.032289,-0.05968 -0.04501,-0.136 -0.00783,-0.0773 0.0088,-0.172204 0.042071,-0.107628 0.106645,-0.204494 0.1232788,-0.184926 0.3561424,-0.330716 0.235799,-0.143834 0.4735548,-0.290603 0.2426479,-0.147747 0.3620131,-0.326802 0.064575,-0.09687 0.090991,-0.168292 0.028373,-0.07436 0.052831,-0.231889 0.026415,-0.160463 0.061637,-0.213299 0.025438,-0.03816 0.072402,-0.07045 0.110562,-0.03229 0.2260176,0.01076 0.1203477,0.04207 0.2553727,0.132084 l 0.1115424,0.07436 q 0.08806,0.0587 0.1751411,0.112517 0.087081,0.05381 0.1741626,0.107624 0.1379603,0.09197 0.2221068,0.169264 0.089038,0.07632 0.1604661,0.191769 z M 8.423447,18.679062 q -0.073383,-0.02348 -0.1320878,0.0137 -0.056748,0.03425 -0.1056685,0.107629 0.01272,0.02544 0.036203,0.04109 0.020547,0.0137 0.059685,0.03131 0.04403,0.01663 0.052836,0.0225 0.038159,0.02544 0.046966,0.05675 0.032288,0.0088 0.059684,-0.03229 0.023482,-0.03522 0.04892,-0.07338 0.030329,-0.115456 -0.066536,-0.167311 z" />
            <path id="accessory-c1" 
                d="m 10.396875,19.452681 q 0.02662,0.08349 0.01121,0.17635 -0.01406,0.0896 -0.05846,0.197222 -0.04052,0.05198 -0.09906,0.07362 -0.05854,0.02165 -0.1044,0.02181 -0.0426,0.0015 -0.06869,-0.0093 -0.06849,-0.02825 -0.1066415,-0.07452 -0.033549,-0.04819 -0.021034,-0.115529 l 0.016143,-0.03913 q 0.030941,-0.07501 0.034814,-0.130653 0.0052,-0.0589 -0.040807,-0.104603 -0.068485,-0.02825 -0.1389278,0.0037 -0.069097,0.02874 -0.111738,0.09511 -0.041866,0.05524 -0.085852,0.124863 -0.042641,0.06637 -0.069546,0.13159 -0.026905,0.06522 -0.039421,0.132568 -0.00925,0.06869 -0.00143,0.132976 0.022013,0.0854 0.069748,0.154704 0.049081,0.06604 0.1175663,0.09429 0.039134,0.01614 0.094779,0.02002 0.039338,-0.0029 0.1211137,-0.05307 0.08312,-0.05348 0.1320383,-0.0333 0.02935,0.01211 0.05332,0.03726 0.01561,0.193431 -0.0181,0.404676 -0.03237,0.207984 -0.1144303,0.406918 -0.088788,0.215239 -0.2328123,0.388613 -0.1394179,0.171458 -0.2889451,0.247158 -0.146266,0.07705 -0.2661973,0.081 -0.1185859,6.92e-4 -0.2425118,-0.05043 -0.034528,-0.01806 -0.054095,-0.02613 L 8.8551626,21.72843 Q 8.6594901,21.647714 8.554643,21.467083 8.4530572,21.287797 8.4609266,20.981936 q 0.00921,-0.309123 0.1706472,-0.700468 0.1439439,-0.348949 0.3703554,-0.629535 0.231018,-0.282501 0.521838,-0.460195 0.1278401,-0.06938 0.2792421,-0.07562 0.1560084,-0.0082 0.2929787,0.04835 0.218501,0.09013 0.300887,0.288213 z"/>
            <path id="accessory-c2" 
                d="m 11.628962,19.755128 q 0.03974,0.0781 0.03952,0.172231 5.77e-4,0.0907 -0.02587,0.20407 -0.0316,0.05783 -0.08588,0.08864 -0.05428,0.03081 -0.09951,0.03837 -0.0418,0.0084 -0.06928,0.002 -0.07215,-0.01683 -0.117268,-0.05634 -0.04088,-0.04214 -0.0394,-0.110621 l 0.0096,-0.04123 q 0.01843,-0.07902 0.01328,-0.134558 -0.0044,-0.05898 -0.05715,-0.09665 -0.07215,-0.01683 -0.136503,0.02612 -0.06356,0.03951 -0.09493,0.111888 -0.0324,0.06127 -0.06458,0.137079 -0.03137,0.07238 -0.0474,0.141087 -0.01603,0.06871 -0.01751,0.137192 0.002,0.06928 0.02005,0.131464 0.0355,0.08073 0.0938,0.141423 0.05909,0.05725 0.13124,0.07409 0.04123,0.0096 0.09677,0.0045 0.03836,-0.0092 0.110963,-0.07192 0.0734,-0.06619 0.124935,-0.05417 0.03092,0.0072 0.05863,0.02817 0.04662,0.188378 0.04743,0.402295 0.0016,0.210481 -0.04728,0.420049 -0.0529,0.226745 -0.167059,0.421085 -0.109927,0.191707 -0.245281,0.290541 -0.131918,0.09964 -0.24964,0.122888 -0.11692,0.01982 -0.247471,-0.01064 -0.03699,-0.01225 -0.0576,-0.01706 l -0.03092,-0.0072 q -0.206132,-0.04809 -0.338751,-0.209434 -0.129182,-0.160546 -0.1707663,-0.463669 -0.040783,-0.306559 0.055391,-0.718824 0.08575,-0.367602 0.263927,-0.681043 0.18241,-0.316074 0.440748,-0.538364 0.114971,-0.0891 0.263383,-0.119682 0.152649,-0.03322 0.296941,4.43e-4 0.230181,0.0537 0.343447,0.235888 z" />
            <path id="accessory-e1" 
                d="m 12.827979,19.787594 q 0.05533,0.07091 0.08507,0.154235 0.03326,0.08356 0.02828,0.157479 -0.005,0.07392 -0.04421,0.131381 -0.03757,0.03283 -0.09389,0.02903 -0.05632,-0.0038 -0.106268,-0.04959 -0.04924,-0.05635 -0.09472,-0.115991 -0.06941,-0.07186 -0.129246,-0.07589 -0.02816,-0.0019 -0.0683,0.01661 -0.0399,0.01499 -0.04346,0.06779 -0.0033,0.04928 0.01638,0.07182 0.02322,0.02278 0.155308,0.05643 0.132092,0.03365 0.126638,0.114605 -3.8e-5,0.05303 -0.0019,0.08119 -0.0031,0.04576 -0.01226,0.07696 -0.0092,0.0312 -0.06268,0.03821 -0.01736,-0.0047 -0.05256,-0.0071 -0.05984,-0.004 -0.103497,0.01424 -0.04342,0.01475 -0.06715,0.05205 -0.02349,0.03378 -0.02586,0.06897 -0.0078,0.116154 0.0513,0.130745 0.06264,0.01483 0.0908,0.01673 0.07392,0.005 0.18429,-0.111336 0.110375,-0.116316 0.149093,-0.113707 0.0352,0.0024 0.09947,0.0456 0.0645,0.0397 0.0867,0.18263 0.0165,0.227402 0.03676,0.451521 -0.0055,0.08095 -0.01115,0.16543 -0.0057,0.08448 -0.0079,0.169188 -0.02656,0.394217 -0.07642,0.557039 -0.04963,0.159302 -0.135799,0.231284 -0.08265,0.07222 -0.233093,0.100976 -0.150203,0.02524 -0.336752,0.01267 -0.18303,-0.01233 -0.356886,-0.05587 -0.170098,-0.04682 -0.261339,-0.109538 -0.09124,-0.06272 -0.142577,-0.14043 -0.04782,-0.07747 -0.04046,-0.186587 0.01447,-0.214708 0.115304,-0.451883 0.104596,-0.240457 0.209428,-0.484434 0.104833,-0.243977 0.118113,-0.441086 0.0066,-0.09855 -0.0022,-0.176939 -0.0086,-0.0819 -0.04375,-0.190343 -0.04311,-0.09483 -0.08879,-0.203986 -0.04216,-0.108915 -0.036,-0.200429 0.0028,-0.04224 0.01625,-0.08376 0.09112,-0.09286 0.21668,-0.119761 0.129084,-0.02666 0.298034,-0.01528 0.119673,0.0081 0.221273,0.02198 0.1016,0.01392 0.248958,0.03092 0.04904,0.0068 0.06897,0.02586 0.02017,0.0155 0.05604,0.06035 z"/>
            <path id="accessory-s1"
                d="m 14.161628,19.864131 q 0.03713,0.0568 0.04298,0.120026 0.0049,0.05269 -0.0085,0.09998 -0.01015,0.04345 -0.05316,0.114742 -0.0395,0.07096 -0.158933,0.082 -0.06323,0.0058 -0.122033,-0.01706 -0.03805,-0.02837 -0.09963,-0.196274 -0.05839,-0.171744 -0.163773,-0.162003 -0.02459,0.0023 -0.06226,0.01638 -0.06096,0.03043 -0.09792,0.09054 -0.03377,0.05626 -0.02825,0.115981 0.0032,0.03513 0.03108,0.06798 0.02784,0.03286 0.420975,0.223256 0.392814,0.186888 0.479954,0.36306 0.156865,0.240583 0.188037,0.577812 0.02208,0.238871 -0.02102,0.46251 -0.04342,0.220125 -0.150137,0.40713 -0.09181,0.118314 -0.23031,0.191344 -0.13883,0.06952 -0.293394,0.0838 -0.136999,0.01266 -0.256169,-0.01175 -0.185647,-0.0537 -0.313318,-0.208407 -0.124158,-0.155036 -0.188981,-0.358071 -0.0049,-0.05269 -0.02072,-0.185854 -0.01585,-0.133162 -0.02267,-0.206931 -0.02273,-0.245896 -0.007,-0.38198 0.01576,-0.136084 0.05585,-0.238989 0.0268,-0.01665 0.06193,-0.0199 0.03864,-0.0036 0.140896,0.02949 0.105443,0.02922 0.137058,0.0263 0.03864,-0.0036 0.06863,-0.02406 0.02967,-0.024 0.0529,-0.07929 -0.03471,-0.14559 -0.259828,-0.319637 -0.221926,-0.177884 -0.237837,-0.350011 l -0.0039,-0.04215 q -0.01007,-0.108897 0.04824,-0.206399 0.05798,-0.101015 0.163892,-0.181662 0.151582,-0.08487 0.341274,-0.102402 0.17564,-0.01623 0.322322,0.03752 0.150194,0.05343 0.243652,0.182962 z" />
            <path id="accessory-s2" 
                d="m 15.39042,19.568239 q 0.04556,0.05029 0.06122,0.11183 0.01305,0.05128 0.0073,0.100077 -0.0032,0.04451 -0.03457,0.121643 -0.02792,0.07627 -0.144156,0.105845 -0.06154,0.01566 -0.123199,0.0022 -0.04202,-0.02207 -0.129091,-0.178283 -0.08452,-0.160502 -0.187088,-0.134404 -0.02393,0.0061 -0.05893,0.02592 -0.05545,0.03959 -0.08256,0.104732 -0.02456,0.06085 -0.0098,0.118972 0.0087,0.03419 0.04133,0.06229 0.03263,0.0281 0.450704,0.154689 0.417203,0.123171 0.530818,0.283551 0.192552,0.213098 0.276067,0.541306 0.05916,0.23248 0.05156,0.460107 -0.0085,0.224208 -0.08463,0.425598 -0.07218,0.131212 -0.197561,0.225001 -0.126253,0.09037 -0.276681,0.128647 -0.133335,0.03393 -0.254856,0.02845 -0.191759,-0.02401 -0.34205,-0.156855 -0.146871,-0.133717 -0.242643,-0.324119 -0.01305,-0.05128 -0.04953,-0.180328 -0.03648,-0.129045 -0.05475,-0.200841 -0.0609,-0.239318 -0.0666,-0.376193 -0.0057,-0.136876 0.0178,-0.244782 0.02387,-0.02063 0.05806,-0.02933 0.03761,-0.0096 0.143774,0.0071 0.108715,0.01238 0.139485,0.0045 0.03761,-0.0096 0.06403,-0.03449 0.02555,-0.02834 0.03985,-0.08658 -0.05705,-0.138371 -0.30661,-0.27508 -0.247009,-0.140997 -0.289637,-0.30852 l -0.01044,-0.04103 q -0.02697,-0.105984 0.01537,-0.211402 0.04147,-0.108838 0.133473,-0.205053 0.136448,-0.107525 0.321065,-0.154502 0.170942,-0.0435 0.324224,-0.01334 0.156701,0.02929 0.269263,0.142615 z"/>
            <path id="accessory-o" 
                d="m 16.426711,18.970586 q 0.27964,0.127469 0.521443,0.414196 0.240382,0.283498 0.540196,0.96481 l 0.137829,0.313209 q 0.06756,0.232358 0.04561,0.454 -0.02014,0.216991 -0.159367,0.382324 -0.126572,0.132784 -0.313852,0.215197 -0.129159,0.05684 -0.238816,0.0704 -0.108236,0.0168 -0.293198,-0.04442 -0.186383,-0.06444 -0.386851,-0.292274 -0.200469,-0.227831 -0.339719,-0.54427 -0.05542,-0.12593 -0.10825,-0.272267 -0.05102,-0.150987 -0.125951,-0.426355 -0.0637,-0.503855 -0.04886,-0.741642 0.01342,-0.241015 0.157044,-0.335051 0.143623,-0.09404 0.18095,-0.114316 0.04056,-0.0217 0.07607,-0.03733 0.09364,-0.04121 0.177466,-0.04341 0.0824,-0.0054 0.178244,0.03719 z m -0.26192,0.412036 q -0.05812,0.02558 -0.06948,0.0961 -0.01278,0.06729 -0.003,0.124641 0.0098,0.05735 0.03359,0.120118 0.02377,0.06277 0.03798,0.09506 l 0.06394,0.145304 q 0.02131,0.04843 0.07931,0.0576 0.0598,0.0045 0.12761,-0.02532 0.06458,-0.02842 0.09842,-0.07414 0.03565,-0.05037 0.01433,-0.09881 l -0.05826,-0.132388 q -0.03126,-0.07104 -0.05761,-0.113401 -0.02312,-0.04378 -0.07091,-0.09984 -0.04921,-0.05928 -0.09352,-0.08989 -0.0443,-0.03061 -0.102425,-0.005 z"/>
            <path id="accessory-r"
                d="m 17.79829,18.331956 q 0.03753,0.0299 0.07137,0.07941 0.06768,0.09902 0.07376,0.201696 0.009,0.100681 -0.0023,0.309231 0.267976,0.07322 0.536874,0.141546 0.253707,0.108615 0.476741,0.27238 0.221042,0.160854 0.368351,0.376377 0.07764,0.113586 0.12401,0.231448 0.04929,0.115871 0.07037,0.246746 -0.0059,0.0852 -0.05018,0.145397 -0.03941,0.06112 -0.115136,0.11288 -0.04077,0.02787 -0.141014,0.07502 -0.09733,0.04516 -0.257729,-0.03322 -0.160401,-0.07838 -0.266239,-0.176966 -0.105839,-0.09858 -0.140602,-0.143191 -0.03675,-0.04752 -0.06661,-0.09121 -0.04778,-0.0699 -0.13459,-0.21567 -0.0839,-0.147761 -0.115753,-0.194361 -0.05972,-0.08737 -0.102298,-0.130914 -0.03967,-0.04553 -0.115645,-0.100426 -0.04428,-0.02101 -0.08796,0.0088 -0.0233,0.01592 -0.02194,0.04918 -6.27e-4,0.03034 0.03521,0.08276 0.0251,0.05548 0.05695,0.102084 0.06171,0.09029 0.215178,0.24605 0.15439,0.15086 0.186093,0.184741 0.107683,0.08878 0.213188,0.243138 0.08162,0.119411 0.120028,0.225623 0.03933,0.101309 -0.02187,0.224328 -0.05921,0.125932 -0.210659,0.229447 -0.107762,0.07365 -0.23388,0.08294 -0.126119,0.0093 -0.227682,-0.05803 -0.100642,-0.07222 -0.190222,-0.203285 -0.03583,-0.05242 -0.0738,-0.12048 -0.03797,-0.06806 -0.06997,-0.127374 -0.07387,-0.29563 -0.168754,-0.546985 -0.09488,-0.251355 -0.234231,-0.455228 -0.125411,-0.183486 -0.275526,-0.303084 -0.152104,-0.12251 -0.352358,-0.177926 -0.0089,-0.0067 -0.01486,-0.01548 -0.008,-0.01165 -0.01,-0.01456 -0.03583,-0.05242 -0.02278,-0.108349 0.01106,-0.05884 0.05202,-0.155204 0.08679,-0.110595 0.185516,-0.203715 0.09674,-0.09603 0.21615,-0.17765 0.183486,-0.125411 0.368001,-0.161792 0.185437,-0.04128 0.354722,0.04385 z m -0.576415,0.500805 0.281204,0.286383 q 0.02253,0.0017 0.03709,-0.0083 0.01748,-0.01194 0.02485,-0.05117 0.0054,-0.04214 0.0081,-0.05685 -0.01894,-0.115243 -0.02506,-0.136699 -0.0081,-0.02437 -0.03598,-0.06514 -0.01792,-0.02621 -0.05054,-0.05519 -0.03263,-0.02898 -0.08641,-0.0264 -0.05087,5.88e-4 -0.09456,0.03045 -0.04369,0.02986 -0.05873,0.08287 z" />
            <path id="accessory-i"
                d="m 18.605856,17.294474 q 0.04949,0.01626 0.09858,0.04748 0.0491,0.03122 0.07824,0.06192 0.08015,0.08443 0.163052,0.351094 0.08546,0.264235 0.155895,0.338431 0.03643,0.03838 0.0831,0.06704 0.04424,0.0261 0.435611,0.233412 0.393931,0.20488 0.568808,0.389092 0.128728,0.135601 0.208845,0.31735 0.03423,0.123163 -0.01646,0.249108 -0.05056,0.120958 -0.163131,0.227827 -0.156069,0.14816 -0.357378,0.212796 -0.20118,0.05965 -0.336582,-0.01125 -0.0932,-0.06231 -0.175784,-0.149301 -0.162732,-0.171419 -0.336373,-0.595154 -0.17364,-0.423735 -0.324228,-0.582362 -0.05343,-0.05629 -0.119532,-0.105418 -0.0661,-0.04913 -0.127726,-0.07818 -0.06406,-0.03161 -0.197549,-0.08 -0.133492,-0.04839 -0.191784,-0.109791 -0.04372,-0.04605 -0.06914,-0.12407 -0.02286,-0.08045 0.03754,-0.196158 0.06296,-0.11814 0.185768,-0.234725 0.117691,-0.111727 0.234215,-0.178567 0.116525,-0.06684 0.166009,-0.05058 z" />
            <path id="accessory-e2"
                d="m 19.318283,16.442208 q 0.08978,-0.0054 0.17529,0.01731 0.0877,0.01995 0.14578,0.06594 0.05808,0.04599 0.0832,0.110877 0.0058,0.04956 -0.02928,0.09381 -0.03504,0.04425 -0.101079,0.05946 -0.07434,0.0086 -0.149247,0.01232 -0.09854,0.01647 -0.135769,0.06349 -0.01752,0.02213 -0.02502,0.06569 -0.01026,0.04137 0.03122,0.07422 0.03872,0.03066 0.06845,0.02721 0.03192,-0.0062 0.134505,-0.09599 0.10258,-0.08977 0.166191,-0.0394 0.04368,0.03008 0.0658,0.0476 0.03595,0.02847 0.05647,0.05371 0.02051,0.02524 -0.004,0.0733 -0.01372,0.01164 -0.03562,0.0393 -0.03723,0.04702 -0.04692,0.09335 -0.01245,0.04414 0.0048,0.08482 0.01452,0.03849 0.04217,0.06039 0.09127,0.07227 0.136795,0.03182 0.04772,-0.04321 0.06524,-0.06534 0.04599,-0.05808 0.0127,-0.214935 -0.03329,-0.156856 -0.0092,-0.187278 0.0219,-0.02766 0.09393,-0.05612 0.06927,-0.03065 0.199606,0.03206 0.196714,0.11527 0.392853,0.225583 0.06361,0.05037 0.129988,0.102931 0.06638,0.05256 0.134944,0.102355 0.309758,0.245281 0.415656,0.378634 0.103132,0.131163 0.113607,0.242954 0.01266,0.109026 -0.04889,0.249275 -0.06432,0.13806 -0.180394,0.284642 -0.11388,0.143816 -0.248272,0.262391 -0.134967,0.113619 -0.238349,0.153253 -0.103381,0.03963 -0.196501,0.03789 -0.09093,-0.0045 -0.176667,-0.0724 -0.168707,-0.13359 -0.30698,-0.351078 -0.138849,-0.222443 -0.280463,-0.447076 -0.141614,-0.224633 -0.296494,-0.347274 -0.07744,-0.06132 -0.147045,-0.09844 -0.07237,-0.03931 -0.181622,-0.07182 -0.102568,-0.01822 -0.218389,-0.04244 -0.113631,-0.02698 -0.185539,-0.08392 -0.03319,-0.02628 -0.05981,-0.06086 -0.02488,-0.127697 0.02411,-0.246397 0.05118,-0.121465 0.156304,-0.254219 0.07446,-0.09403 0.143502,-0.169859 0.06904,-0.07582 0.166553,-0.187604 0.03343,-0.03653 0.06039,-0.04217 0.0242,-0.0078 0.08148,-0.01198 z" />
            <path id="accessory-s3" 
                d="m 20.137138,15.387491 q 0.06784,0.0016 0.123257,0.03258 0.04618,0.02584 0.07759,0.06362 0.03006,0.03298 0.06444,0.108812 0.0361,0.07275 -0.02246,0.177426 -0.031,0.05542 -0.08319,0.0909 -0.04493,0.01529 -0.218181,-0.02909 -0.174605,-0.04918 -0.226278,0.04318 -0.01206,0.02155 -0.02177,0.06058 -0.0095,0.06747 0.01914,0.131977 0.02723,0.0597 0.07957,0.08898 0.03079,0.01722 0.07363,0.0129 0.04284,-0.0043 0.422459,-0.220435 0.376536,-0.217831 0.571077,-0.189839 0.28712,0.007 0.582677,0.172376 0.209352,0.117124 0.369229,0.279332 0.156798,0.160484 0.250449,0.354361 0.04549,0.142678 0.02721,0.298186 -0.02136,0.153786 -0.09715,0.28925 -0.06718,0.12007 -0.154802,0.204443 -0.149418,0.122566 -0.349235,0.140131 -0.198095,0.01449 -0.40213,-0.04711 -0.04618,-0.02584 -0.164895,-0.08821 -0.118713,-0.06237 -0.183366,-0.09854 -0.21551,-0.120569 -0.318722,-0.210651 -0.103212,-0.09008 -0.165302,-0.181412 0.0015,-0.03152 0.01869,-0.06231 0.01895,-0.03387 0.104119,-0.0994 0.08382,-0.07034 0.09932,-0.09805 0.01895,-0.03387 0.01906,-0.07019 -0.003,-0.03804 -0.03537,-0.08851 -0.139641,-0.05387 -0.410593,0.03304 -0.272309,0.08211 -0.423166,-0.0023 l -0.03694,-0.02067 q -0.09544,-0.05339 -0.142761,-0.156674 -0.0504,-0.105001 -0.05686,-0.237968 0.01594,-0.172991 0.108946,-0.339242 0.08612,-0.153935 0.213513,-0.244358 0.129115,-0.0935 0.288801,-0.09714 z"/>
        </symbol>
        <symbol id="esoterica-word">
         <path id="esoterica-e1"
            d="m 8.7284079,18.586284 q 0.00968,0.08942 -0.00893,0.175915 -0.015741,0.08855 -0.058909,0.148761 -0.043168,0.06021 -0.1067827,0.08839 -0.049226,0.0081 -0.095098,-0.02477 -0.045872,-0.03289 -0.06421,-0.09813 -0.012171,-0.07384 -0.01942,-0.148489 -0.021151,-0.09764 -0.06989,-0.132586 -0.022936,-0.01645 -0.066807,-0.02185 -0.041815,-0.0083 -0.072649,0.03473 -0.028778,0.04014 -0.02391,0.06967 0.00774,0.03159 0.1022929,0.129773 0.094557,0.09818 0.047279,0.164123 -0.027967,0.04506 -0.044412,0.068 -0.026723,0.03727 -0.050957,0.05896 -0.024234,0.02169 -0.073406,-5.41e-4 -0.012279,-0.01314 -0.04095,-0.0337 -0.048739,-0.03494 -0.095477,-0.04241 -0.044682,-0.01033 -0.084496,0.0089 -0.037758,0.01634 -0.058314,0.04501 -0.067835,0.09461 -0.025262,0.138157 0.045439,0.0456 0.068376,0.06205 0.060207,0.04317 0.2152965,0.0024 0.1550891,-0.04073 0.1866263,-0.01812 0.02867,0.02056 0.060532,0.09115 0.033917,0.06773 -0.022503,0.200908 -0.1057548,0.201989 -0.206587,0.403167 -0.047279,0.06594 -0.096613,0.134749 -0.049334,0.06881 -0.095801,0.139673 Q 7.6972036,20.55127 7.5690536,20.663408 7.4429592,20.772679 7.3317948,20.788475 7.2234974,20.806326 7.0804713,20.751529 6.9395008,20.693864 6.7875491,20.584917 6.6384643,20.478027 6.513614,20.349444 6.3936862,20.22005 6.3491663,20.118676 q -0.04452,-0.101373 -0.047225,-0.19447 1.622e-4,-0.09104 0.063886,-0.179918 Q 6.4912185,19.5694 6.7018627,19.42091 6.9174296,19.271609 7.135052,19.119441 7.3526745,18.967273 7.4677877,18.80672 q 0.057557,-0.08028 0.091312,-0.151573 0.035811,-0.07416 0.063074,-0.184841 0.013307,-0.103321 0.03197,-0.220165 0.02153,-0.114789 0.074975,-0.189332 0.024667,-0.0344 0.057935,-0.06264 0.1263649,-0.03094 0.2472664,0.01233 0.1237684,0.04533 0.2613851,0.144 0.097478,0.06989 0.1765107,0.135236 0.079032,0.06535 0.1953356,0.157416 0.038083,0.03165 0.045007,0.05831 0.00898,0.0238 0.01585,0.08082 z" />
         <path id="esoterica-s"
            d="m 9.8198494,19.352 q 0.00172,0.06784 -0.026565,0.124691 -0.023568,0.04738 -0.059787,0.08058 -0.031489,0.03162 -0.1055615,0.06963 -0.070914,0.03959 -0.1783056,-0.01383 -0.056854,-0.02828 -0.094822,-0.07869 -0.017445,-0.04414 0.018483,-0.219335 0.040657,-0.176782 -0.0541,-0.223918 -0.02211,-0.011 -0.061568,-0.01881 -0.067853,-0.0062 -0.1308947,0.02551 -0.058312,0.0301 -0.085023,0.08379 -0.015712,0.03159 -0.00931,0.07417 0.0064,0.04258 0.2406491,0.41128 0.2358223,0.365538 0.217291,0.561207 0.0069,0.287123 -0.1439367,0.590345 Q 9.2395571,21.033403 9.0852883,21.200953 8.9325906,21.365343 8.7434805,21.46828 8.6031747,21.52063 8.446963,21.50991 8.2923196,21.496033 8.1533426,21.4269 8.0301584,21.365623 7.9416377,21.282188 7.8119749,21.138885 7.7847473,20.940154 q -0.024069,-0.19716 0.027571,-0.403941 0.023568,-0.04738 0.080115,-0.168975 0.056547,-0.121597 0.089542,-0.187927 0.1099843,-0.2211 0.1949586,-0.328556 0.084974,-0.107456 0.1731879,-0.173899 0.031553,-6.4e-5 0.063139,0.01565 0.034744,0.01728 0.1043296,0.09918 0.074315,0.08031 0.1027424,0.09445 0.034744,0.01728 0.071027,0.01563 0.037854,-0.0048 0.086691,-0.03962 0.047039,-0.142087 -0.0529,-0.408509 -0.09521,-0.26801 -0.01822,-0.42278 l 0.018854,-0.0379 q 0.048707,-0.09792 0.1495715,-0.150186 0.1024352,-0.05543 0.2349335,-0.06832 0.1735596,0.0075 0.3441223,0.09238 0.1579284,0.07856 0.2544182,0.201421 0.099648,0.124432 0.1110185,0.283754 z" />
         <path id="esoterica-o"
            d="m 10.992921,19.572788 q 0.129057,0.27891 0.125639,0.653969 -0.0024,0.371684 -0.218927,1.083854 l -0.09954,0.327396 q -0.100161,0.220279 -0.261235,0.374103 -0.156673,0.151475 -0.370018,0.186163 -0.1825348,0.01825 -0.3782974,-0.04128 Q 9.6555339,22.115943 9.5635135,22.05478 9.4704665,21.99699 9.3700534,21.830033 9.2706664,21.6597 9.2670613,21.35625 q -0.0036,-0.30345 0.096965,-0.634221 0.040023,-0.131634 0.095303,-0.277064 0.059681,-0.14778 0.182282,-0.405483 0.2800034,-0.423704 0.4462087,-0.594404 0.167232,-0.174075 0.337452,-0.151818 0.17022,0.02226 0.211749,0.0312 0.0449,0.01 0.08203,0.02125 0.09788,0.02976 0.1629,0.08271 0.06605,0.04958 0.110973,0.144359 z m -0.46717,0.141875 q -0.06075,-0.01847 -0.115327,0.02762 -0.05355,0.04272 -0.08347,0.09261 -0.02992,0.0499 -0.05279,0.113001 -0.02287,0.0631 -0.03313,0.09686 l -0.04618,0.151885 q -0.01539,0.05063 0.02262,0.09537 0.04242,0.04239 0.113298,0.06395 0.0675,0.02052 0.122967,0.0079 0.05986,-0.01498 0.07526,-0.06561 l 0.04208,-0.138384 q 0.02258,-0.07425 0.03019,-0.12356 0.01099,-0.04828 0.01126,-0.121941 0.0013,-0.07704 -0.01236,-0.129124 -0.01366,-0.05209 -0.07442,-0.07056 z" />
         <path id="esoterica-t"
            d="m 12.063495,20.18749 q -0.0041,-0.04689 -0.01658,-0.08429 -0.01203,-0.04089 -0.04252,-0.07727 -0.02248,-0.01743 -0.04989,7.1e-5 -0.02392,0.01799 -0.03486,0.04495 -0.03557,0.251498 0.01577,0.568728 0.05183,0.313738 0.103664,0.627475 0.05183,0.313737 0.01627,0.565235 -0.03211,0.227047 -0.110222,0.37633 -0.07812,0.149283 -0.255132,0.216886 -0.129136,0.05656 -0.296801,0.03285 -0.111777,-0.01581 -0.216109,-0.05906 -0.101333,-0.03927 -0.198715,-0.106483 -0.101898,-0.08567 -0.128008,-0.203371 -0.02611,-0.117705 -0.0044,-0.271398 0.01432,-0.101298 0.0441,-0.211099 0.03027,-0.113294 0.04516,-0.168195 0.04326,-0.104332 0.307031,-0.558709 0.264269,-0.457869 0.304279,-0.740805 0.0024,-0.04241 0.0054,-0.06337 l 0.0059,-0.04192 q 0.0035,-0.02445 -0.01803,-0.04887 -0.02149,-0.02442 -0.05839,-0.01538 -0.03835,0.04446 -0.09794,0.239114 -0.05561,0.191658 -0.173804,0.221261 -0.129771,-0.03973 -0.140921,-0.162443 0.0054,-0.03842 0.01478,-0.129735 0.0098,-0.09481 0.01725,-0.147202 0.02272,-0.160679 0.07395,-0.271009 0.05522,-0.11333 0.169394,-0.164879 0.02992,-0.01002 0.170629,0.0028 0.144202,0.01327 0.290909,0.03401 0.188623,0.02667 0.303399,0.04647 0.114776,0.01979 0.172676,0.03867 0.09541,0.08119 0.113542,0.204888 0.02163,0.124196 -0.0021,0.291862 -0.0064,0.04541 -0.02276,0.135734 -0.01634,0.09032 -0.02177,0.128748 -0.04474,0.114811 -0.180437,0.116999 -0.08239,-0.04728 -0.09851,-0.160008 -0.0052,-0.139686 -0.0063,-0.207535 z" />
         <path id="esoterica-e2"
            d="m 13.422629,19.770061 q 0.06052,0.06653 0.09647,0.147375 0.03947,0.08082 0.04009,0.154896 6.12e-4,0.07408 -0.03417,0.134343 -0.03499,0.03557 -0.09143,0.03603 -0.05644,4.67e-4 -0.109707,-0.04143 -0.05335,-0.05248 -0.103206,-0.108512 -0.07463,-0.06641 -0.134605,-0.06592 -0.02822,2.33e-4 -0.06685,0.02172 -0.03866,0.01796 -0.03822,0.07087 4.08e-4,0.04939 0.02175,0.07038 0.02487,0.02096 0.159124,0.04455 0.134255,0.02359 0.134925,0.104722 0.004,0.05289 0.0042,0.08111 3.79e-4,0.04586 -0.0064,0.07767 -0.0068,0.03181 -0.05962,0.04283 -0.01767,-0.0034 -0.05294,-0.0031 -0.05997,4.96e-4 -0.102127,0.02201 -0.04219,0.01799 -0.06303,0.05697 -0.02088,0.03545 -0.02058,0.07073 9.62e-4,0.116413 0.06102,0.1265 0.06359,0.01006 0.09181,0.0098 0.07408,-6.12e-4 0.175363,-0.124926 0.101281,-0.124313 0.140086,-0.124634 0.03528,-2.91e-4 0.102623,0.03796 0.06732,0.03472 0.100232,0.175567 0.03361,0.225508 0.07073,0.447459 6.71e-4,0.08114 0.0014,0.1658 6.99e-4,0.08466 0.0049,0.169298 0.0033,0.395098 -0.03417,0.561219 -0.03746,0.162593 -0.117958,0.240872 -0.07697,0.07825 -0.224809,0.118278 -0.14787,0.0365 -0.334836,0.03805 -0.183438,0.0015 -0.360083,-0.02877 -0.173147,-0.03385 -0.268861,-0.0895 -0.09571,-0.05566 -0.152768,-0.129269 -0.05353,-0.07364 -0.05443,-0.183001 -0.0018,-0.215188 0.08087,-0.459296 0.08615,-0.247665 0.172272,-0.498857 0.08612,-0.251193 0.08449,-0.448742 -8.16e-4,-0.09877 -0.01557,-0.176266 -0.01478,-0.08102 -0.05799,-0.1865 -0.05014,-0.09131 -0.103934,-0.196703 -0.05026,-0.105422 -0.05102,-0.197141 -3.5e-4,-0.04233 0.0099,-0.08475 0.08385,-0.09947 0.207024,-0.135771 0.126705,-0.03633 0.296032,-0.03772 0.119941,-9.91e-4 0.222301,0.0052 0.102361,0.0062 0.250581,0.01204 0.04942,0.0031 0.07073,0.02058 0.02128,0.01394 0.06044,0.05595 z" />
         <path id="esoterica-r"
            d="m 14.834893,19.758896 q 0.02235,0.04246 0.03345,0.101396 0.02219,0.117873 -0.01349,0.214336 -0.03222,0.09581 -0.12635,0.282249 0.215972,0.174726 0.434759,0.345331 0.188686,0.201401 0.327124,0.44098 0.137785,0.236112 0.186084,0.492661 0.02545,0.135208 0.02056,0.26177 -0.0014,0.12591 -0.0347,0.254226 -0.0396,0.07566 -0.104371,0.112983 -0.06065,0.04014 -0.150788,0.05711 -0.04854,0.0091 -0.159273,0.01204 -0.10727,0.0022 -0.22266,-0.133979 -0.11539,-0.136225 -0.1727,-0.269026 -0.05731,-0.132801 -0.07122,-0.187618 -0.01456,-0.05828 -0.02435,-0.110287 -0.01567,-0.08321 -0.03659,-0.251574 -0.01746,-0.16902 -0.02791,-0.22449 -0.01958,-0.104007 -0.04108,-0.160985 -0.01803,-0.05763 -0.06555,-0.13843 -0.0321,-0.03703 -0.0841,-0.02724 -0.02774,0.0052 -0.03985,0.03622 -0.01276,0.02753 -10e-4,0.08994 6.95e-4,0.0609 0.01114,0.116365 0.02023,0.107473 0.09818,0.311773 0.08076,0.200181 0.09618,0.243945 0.06294,0.124561 0.09753,0.308306 0.02676,0.142142 0.01926,0.254836 -0.0047,0.108575 -0.11016,0.196637 -0.10482,0.09153 -0.285097,0.125469 -0.128275,0.02415 -0.247496,-0.01802 -0.119222,-0.04217 -0.185178,-0.144626 -0.06314,-0.106575 -0.09251,-0.262584 -0.01175,-0.0624 -0.01917,-0.13998 -0.0074,-0.07758 -0.01289,-0.144753 0.05114,-0.300398 0.06524,-0.568695 0.0141,-0.268297 -0.03158,-0.510978 -0.04112,-0.218414 -0.13053,-0.388248 -0.09006,-0.173301 -0.251174,-0.304509 -0.0054,-0.0097 -0.0074,-0.02015 -0.0026,-0.01387 -0.0033,-0.01733 -0.01175,-0.0624 0.02267,-0.108371 0.03377,-0.04943 0.109999,-0.121222 0.123909,-0.0664 0.251734,-0.112009 0.127172,-0.04907 0.269314,-0.07583 0.218413,-0.04112 0.401997,-2.97e-4 0.186397,0.0367 0.307213,0.182676 z m -0.729062,0.227 0.142439,0.375237 q 0.01994,0.0106 0.03728,0.0073 0.0208,-0.0039 0.04331,-0.03687 0.02186,-0.03642 0.0303,-0.04878 0.02895,-0.113144 0.03197,-0.135251 0.0024,-0.02557 -0.0068,-0.07411 -0.0059,-0.0312 -0.02411,-0.07085 -0.01823,-0.03965 -0.06852,-0.05889 -0.04682,-0.0199 -0.09883,-0.01011 -0.052,0.0098 -0.08708,0.05229 z" />
         <path id="esoterica-i" 
            d="m 15.994244,19.134095 q 0.03875,0.03481 0.07112,0.08315 0.03237,0.04835 0.04669,0.08819 0.03937,0.109557 0.0079,0.387028 -0.02817,0.276278 0.0064,0.372556 0.0179,0.0498 0.04907,0.09483 0.02998,0.04171 0.304753,0.389055 0.27809,0.346155 0.363989,0.585189 0.06323,0.175956 0.06339,0.374579 -0.01826,0.12652 -0.115369,0.221395 -0.09498,0.09036 -0.241058,0.142857 -0.202515,0.07278 -0.41281,0.05088 -0.208168,-0.02641 -0.303562,-0.145819 -0.06022,-0.09457 -0.100788,-0.207444 -0.07994,-0.222434 -0.06826,-0.680218 0.01168,-0.457783 -0.06229,-0.663618 -0.02625,-0.07304 -0.06697,-0.144624 -0.04072,-0.07159 -0.08543,-0.122993 -0.04591,-0.05473 -0.148616,-0.15277 -0.102709,-0.09804 -0.131342,-0.17772 -0.02148,-0.05976 -0.01333,-0.141407 0.01146,-0.08284 0.113346,-0.164438 0.1052,-0.08279 0.264556,-0.140055 0.152716,-0.05488 0.286291,-0.06914 0.133574,-0.01426 0.172323,0.02054 z"/>
         <path id="esoterica-c" 
            d="m 17.077267,18.664036 q 0.08128,0.03274 0.14298,0.103836 0.06004,0.06798 0.114625,0.170806 0.01419,0.06436 -0.0065,0.123252 -0.02066,0.05889 -0.04978,0.09432 -0.02601,0.03377 -0.05094,0.04701 -0.06544,0.03473 -0.125409,0.03461 -0.05851,-0.0049 -0.102399,-0.05748 L 16.980028,19.143 q -0.03804,-0.07167 -0.07843,-0.11014 -0.04204,-0.04159 -0.106593,-0.03528 -0.06544,0.03473 -0.08571,0.109398 -0.02193,0.07155 0.002,0.146719 0.01584,0.06747 0.04142,0.145759 0.02392,0.07517 0.057,0.137489 0.03308,0.06232 0.07697,0.11491 0.04701,0.05094 0.101513,0.08591 0.07982,0.03751 0.163642,0.04494 0.08217,0.0043 0.147604,-0.03042 0.03739,-0.01985 0.07586,-0.06024 0.02289,-0.03212 0.03636,-0.127136 0.01182,-0.09813 0.05856,-0.122941 0.02804,-0.01488 0.0627,-0.01731 0.158945,0.111338 0.300152,0.272029 0.139553,0.157575 0.240444,0.347653 0.10916,0.205659 0.150846,0.427162 0.04315,0.216733 0.0061,0.380183 -0.03394,0.161796 -0.107381,0.256693 -0.0751,0.09178 -0.193505,0.15463 -0.03593,0.01508 -0.05463,0.025 l -0.02804,0.01489 q -0.186963,0.09924 -0.392959,0.06479 -0.202879,-0.0361 -0.433446,-0.237223 -0.232221,-0.204243 -0.430694,-0.578167 -0.176972,-0.333417 -0.248693,-0.686753 -0.07026,-0.358106 -0.02165,-0.695432 0.02809,-0.142716 0.119846,-0.263308 0.09322,-0.125363 0.22409,-0.194828 0.208775,-0.110815 0.413884,-0.04795 z"/>
         <path id="esoterica-a"
            d="m 18.422584,17.535872 q 0.102011,0.0077 0.157824,0.07603 0.04019,0.04917 0.07362,0.190418 0.03393,0.136287 0.06642,0.187188 0.06025,0.12389 0.131692,0.211298 0.138416,0.169353 0.386066,0.299545 0.245418,0.12746 0.476941,0.243496 0.270475,0.152543 0.433448,0.351943 0.09153,0.111991 0.114568,0.207069 0.02304,0.09508 -0.02666,0.190366 -0.05193,0.09256 -0.126437,0.185351 -0.07178,0.09056 -0.150994,0.155303 -0.08468,0.06921 -0.160896,0.104167 -0.07572,0.02999 -0.169539,0.01555 -0.09108,-0.01668 -0.189841,-0.08176 -0.09602,-0.06732 -0.176394,-0.16565 -0.09823,-0.120186 -0.278015,-0.451645 -0.179783,-0.331458 -0.257921,-0.42706 -0.06251,-0.07648 -0.141673,-0.112018 -0.07916,-0.03554 -0.149183,0.01258 -0.06282,0.05135 -0.0842,0.114383 -0.02088,0.05807 0.0089,0.111204 0.03249,0.0509 0.04985,0.07772 0.02009,0.02458 0.03349,0.04097 0.10716,0.131113 0.367182,0.337761 0.26052,0.201684 0.354285,0.316407 0.07814,0.0956 0.121528,0.187713 0.04612,0.08988 0.06989,0.202578 0.02427,0.107737 -0.04404,0.213689 -0.06831,0.105952 -0.180306,0.197485 -0.06282,0.05135 -0.131847,0.08954 -0.06406,0.03869 -0.130588,0.05206 -0.06653,0.01337 -0.143221,0.0032 -0.07619,-0.01518 -0.162053,-0.05891 -0.09056,-0.07178 -0.164234,-0.16192 -0.140648,-0.172085 -0.211748,-0.437462 -0.06837,-0.26761 -0.13897,-0.537951 -0.0701,-0.275305 -0.206286,-0.441927 -0.07367,-0.09014 -0.134213,-0.136339 -0.06277,-0.04893 -0.206205,-0.118504 -0.145664,-0.07231 -0.185849,-0.121473 -0.02902,-0.03551 -0.04612,-0.08988 0.0015,-0.11517 0.07656,-0.212928 0.07551,-0.102721 0.201159,-0.205417 l 0.103797,-0.08484 q 0.08195,-0.06698 0.158926,-0.13445 0.07698,-0.06748 0.153963,-0.134949 0.12838,-0.104928 0.226951,-0.162711 0.09907,-0.06275 0.230393,-0.09718 z m -0.4248,0.684354 q -0.04397,0.06327 -0.02563,0.130299 0.0161,0.0643 0.07191,0.132584 0.02805,-0.0047 0.0499,-0.02256 0.01912,-0.01563 0.04743,-0.04788 0.02881,-0.03722 0.03701,-0.04391 0.03551,-0.02902 0.06803,-0.02826 0.01789,-0.02829 -0.01337,-0.06653 -0.02679,-0.03278 -0.05581,-0.06829 -0.101487,-0.06285 -0.179467,0.01455 z" />
        </symbol>
        <path id="star"
            d="M 65.037196,54.423679 47.179188,47.453396 29.635215,55.180122 30.745921,36.042212 17.975981,21.744592 36.520443,16.886996 46.172159,0.32385416 56.522561,16.459605 75.257589,20.520641 63.110028,35.350679 Z"/>
        <g id="margins-desktop">
            <rect id="margin-frame-03"
                style="fill:#be7264;fill-opacity:1;stroke:#833316;"
                width="88.241348"
                height="59.187222"
                x="-8.9910498"
                y="-8.1192341"/>
            <rect id="margin-frame-02"
                style="fill:#fece40;fill-opacity:1;stroke:#fd6300;"
                width="83.700287"
                height="54.869633"
                x="-6.9771914"
                y="-6.003799" />
            <rect id="margin-frame-01"
                style="fill:#81efc0;fill-opacity:1;stroke:#00813d;"
                width="79.25235"
                height="50.681393"
                x="-4.8427367"
                y="-3.8691599" />
            <rect id="margin-frame-00"
                style="fill:#ad1356;fill-opacity:1;stroke:#880d4e;"
                width="73.607704"
                height="46.068974"
                x="-2.2426805"
                y="-1.6826268" />
        </g>
        <g id="margins-mobile">
            <rect id="margin-frame-03"
                style="fill:#be7264;fill-opacity:1;stroke:#833316;stroke-width:0.783599;stroke-linecap:round;stroke-linejoin:round;stroke-miterlimit:4;stroke-dasharray:none;stroke-opacity:1"
                width="91.105232"
                height="150.13579"
                x="-8.6079044"
                y="-8.8370256" />
            <rect id="margin-frame-02"
                style="fill:#fece40;fill-opacity:1;stroke:#fd6300;stroke-width:0.79375;stroke-linecap:round;stroke-linejoin:round;stroke-miterlimit:4;stroke-dasharray:none;stroke-opacity:1"
                width="87.464653"
                height="146.06094"
                x="-6.5333152"
                y="-6.6122994" />
            <rect id="margin-frame-01" 
                style="fill:#81efc0;fill-opacity:1;stroke:#00813d;stroke-width:0.791815;stroke-linecap:round;stroke-linejoin:round;stroke-miterlimit:4;stroke-dasharray:none;stroke-opacity:1"
                width="83.296898"
                height="142.10535"
                x="-4.2394457"
                y="-4.2496614"/>
            <rect id="margin-frame-00"
                style="fill:#ad1356;fill-opacity:1;stroke:#880d4e;stroke-width:0.801243;stroke-linecap:round;stroke-linejoin:round;stroke-miterlimit:4;stroke-dasharray:none;stroke-opacity:1"
                width="79.377014"
                height="138.42212"
                x="-2.1263518"
                y="-2.3739274"/>
        </g>
    </defs>
</svg>