<svg id="clothing-definitions"
    viewBox="0 0 69.370247 42.747798"
    xmlns="http://www.w3.org/2000/svg"
    xmlns:xlink="http://www.w3.org/1999/xlink"
    xmlns:svg="http://www.w3.org/2000/svg">
    <defs>
        <rect id="desktop-btn-background-definition"
            width="16.692146"
            height="3.3613148"
            x="6.797369"
            rx="1.4197023"
            ry="1.4197023"
            aria-hidden="true" />
        <rect id="mobile-btn-background-definition"
            width="59.627743"
            height="13.203204"
            x="8.594492"
            y="35.741489" 
            rx="5"
            ry="5" />
        <path id="desktop-chevron-definition"
           d="m 21.744203,24.880438 0.640196,0.914604 -0.647169,1.051532" />
        <path id="mobile-chevron-definition"
            d="m 62.111552,39.087976 2.419639,3.456771 -2.445993,3.974294" />
        <path id="star-definition"
            d="M 65.037196,54.423679 47.179188,47.453396 29.635215,55.180122 30.745921,36.042212 17.975981,21.744592 36.520443,16.886996 46.172159,0.32385416 56.522561,16.459605 75.257589,20.520641 63.110028,35.350679 Z" />
        <g id="content-decoration-definition"
            role="presentation">
            <rect id="content-border"
                style="stroke-width:0.0625;fill:#eee3b6;stroke:#342112;"
                width="38.759605"
                height="39.045681"
                x="28.818657"
                y="1.9457265"
                rx="3.6708925"
                ry="3.6708925" />
            <rect id="content-margins"
                style="stroke-width:0.125;fill:#e94b13;stroke:#342112;"
                width="36.279034"
                height="36.546806"
                x="29.896997"
                y="3.2910724"
                rx="3.6708925"
                ry="3.6708925" />
        </g>
        <g id="menu-decoration-definition"
            role="presentation">
            <rect id="menu-border"
                style="stroke-width:0.0625;fill:#eee3b6;stroke:#342112;"
                width="21.986605"
                height="19.498568"
                x="3.7967961"
                y="21.557981"
                rx="3.670882"
                ry="3.670882"/>
            <rect id="menu-container"
                style="stroke-width:0.125;fill:#db4015;stroke:#342112;"
                width="19.776106"
                height="17.538208"
                x="4.9857578"
                y="22.691034"
                rx="3.670882"
                ry="3.670882" />
        </g>
        <g id="title-shadow-02-definition"
            style="font-size:3.52778px;line-height:1.25;fill:#e48321;stroke-width:0.264583"
            aria-hidden="true">
            <path id="clothing-title-shadow-c-02"
            d="m 6.3138857,4.1673407 q 0.087601,0.00218 0.1703,0.047149 0.080058,0.042626 0.1672105,0.1198101 0.035843,0.055305 0.037129,0.1177046 0.00129,0.062399 -0.013576,0.1057858 -0.012523,0.040745 -0.031234,0.061873 Q 6.594599,4.6751238 6.5383877,4.6960274 6.4818743,4.7119511 6.42234,4.678076 L 6.390648,4.650009 Q 6.329905,4.596214 6.2785961,4.574336 q -0.05395,-0.024217 -0.1121983,0.00431 -0.049117,0.055461 -0.041945,0.1324978 0.00453,0.074698 0.053277,0.1367178 0.038484,0.057644 0.089871,0.1220025 0.048746,0.06202 0.1015657,0.1087976 0.05282,0.046778 0.112354,0.080653 0.061873,0.031234 0.125179,0.044888 0.087903,0.00716 0.1690138,-0.015251 0.07847,-0.024753 0.1275866,-0.080214 0.028067,-0.031692 0.049945,-0.083001 0.010184,-0.038104 -0.010495,-0.1318158 -0.02332,-0.09605 0.011763,-0.1356651 0.02105,-0.023769 0.052664,-0.038182 0.1878806,0.048581 0.3764432,0.1496024 0.1859216,0.098682 0.3470217,0.2413549 0.1743049,0.1543671 0.2909659,0.3472185 0.1163589,0.1878715 0.1389286,0.3539422 0.024909,0.1634298 -0.010623,0.2780449 -0.038173,0.1122761 -0.127051,0.2126335 -0.028369,0.026712 -0.042402,0.042558 L 7.959411,6.369194 Q 7.8190772,6.527653 7.6140737,6.567579 7.411409,6.604864 7.1249835,6.497284 6.835917,6.387365 6.518999,6.1066974 6.2364137,5.8564355 6.0454252,5.5506352 5.8541347,5.2398549 5.781455,4.9068849 5.7577548,4.7633747 5.8014341,4.6182762 5.8448112,4.4681978 5.9430449,4.3572764 6.0997509,4.1803305 6.3138857,4.1673407 Z"
            style="fill:#e48321" />
            <path id="clothing-title-shadow-l-02"
            d="m 7.7855179,2.8820247 q 0.028219,0.067029 0.079715,0.2709372 0.04938,0.2010857 0.063489,0.2434198 0.016932,0.040217 0.038802,0.081141 0.02187,0.040923 0.053618,0.083258 0.052914,0.070558 0.112884,0.1093663 0.060676,0.03387 0.1643923,0.048691 0.073379,-0.037391 0.061388,-0.1121806 -0.00917,-0.076906 -0.017632,-0.141112 -0.00846,-0.064206 0.036693,-0.098071 0.033868,-0.025399 0.08749,-0.030335 0.2391818,0.0367 0.4727092,0.2892998 Q 9.133085,3.8557541 9.3249858,4.0822464 9.5662712,4.4039911 9.5916615,4.614248 9.6149353,4.8216825 9.5062722,4.9825443 9.4385365,5.0333412 9.3002419,5.1546904 9.1619474,5.2760397 9.0913893,5.3289531 8.92205,5.4559454 8.7682372,5.4919217 8.6144243,5.527898 8.4387451,5.4347565 8.3745424,5.3726646 8.3110463,5.2879949 8.1798209,5.113011 8.0090985,4.6325195 7.8362596,4.1492057 7.7113838,3.9826887 7.6436546,3.8923744 7.3882487,3.7752403 7.1328428,3.6581063 7.0672302,3.5706143 q -0.04868,-0.064913 -0.047266,-0.1453467 -7.017e-4,-0.083256 0.059981,-0.1904974 0.064209,-0.079019 0.1263012,-0.143222 0.064914,-0.066319 0.1382945,-0.1213493 0.08467,-0.063496 0.1700435,-0.096653 0.08608,-0.038096 0.1883857,-0.048675 0.042333,0.00353 0.057149,0.023286 0.015522,0.014817 0.025399,0.033868 z"
            style="fill:#e48321" />
            <path id="clothing-title-shadow-o-02"
            d="m 9.9282712,1.6665408 q 0.2819608,0.1222498 0.5290508,0.4044327 0.24561,0.278981 0.558036,0.9546024 l 0.143627,0.3105937 q 0.07187,0.231062 0.05405,0.4530733 -0.0161,0.2173286 -0.152234,0.3852205 -0.124082,0.1351131 -0.309797,0.2209932 -0.12808,0.059228 -0.237466,0.07483 -0.107911,0.018805 -0.293978,-0.03896 Q 10.032012,4.3703587 9.8273429,4.1462929 9.6226743,3.9222271 9.4775666,3.6084314 9.4198196,3.4835535 9.3642752,3.3382236 9.3104521,3.188211 9.2304207,2.9142829 9.1573672,2.411699 9.1677876,2.1736777 9.1767274,1.9324545 9.3185777,1.8357653 9.460428,1.7390761 9.4973713,1.7181058 q 0.040145,-0.022451 0.075367,-0.038739 0.092858,-0.04294 0.1766281,-0.046697 0.082289,-0.00696 0.1789048,0.033871 z M 9.6740548,2.0833741 q -0.057636,0.026652 -0.067686,0.097374 -0.011531,0.06752 -6.478e-4,0.1246743 0.010883,0.057155 0.035814,0.1194734 0.024931,0.062319 0.039738,0.094339 l 0.066631,0.1440898 q 0.02221,0.04803 0.080364,0.056118 0.059875,0.00341 0.1271175,-0.027689 0.06404,-0.029614 0.097024,-0.07596 0.0347,-0.051028 0.01249,-0.099058 L 10.004194,2.3854539 Q 9.9716183,2.31501 9.9444847,2.2731434 9.920553,2.2297961 9.8717272,2.1746403 9.8214207,2.1162825 9.7765557,2.0865021 9.7316908,2.0567217 9.6740548,2.0833741 Z"
            style="fill:#e48321" />
            <path id="clothing-title-shadow-t-02"
            d="m 12.024418,1.4585889 q -0.02117,-0.042035 -0.04669,-0.072113 -0.02635,-0.033505 -0.06816,-0.055967 -0.02734,-0.00784 -0.0463,0.018585 -0.01553,0.025589 -0.01568,0.054679 0.06033,0.2467304 0.225762,0.5222377 0.164589,0.2720805 0.329179,0.544161 0.164589,0.2720805 0.224923,0.5188109 0.05447,0.2227427 0.03735,0.3903568 -0.01712,0.167614 -0.156393,0.2960958 -0.09891,0.1004541 -0.263401,0.1406768 -0.109658,0.026815 -0.222593,0.025378 -0.10867,0.00115 -0.224044,-0.025111 -0.126417,-0.041721 -0.194354,-0.1413233 -0.06794,-0.099602 -0.104808,-0.250382 -0.0243,-0.099378 -0.03741,-0.2123874 -0.01395,-0.1164366 -0.0205,-0.1729415 0.0014,-0.112935 0.0777,-0.6327614 0.07542,-0.5232532 0.0075,-0.8008249 -0.01348,-0.040284 -0.01851,-0.060845 l -0.01006,-0.041122 q -0.0059,-0.023988 -0.03488,-0.038683 -0.02901,-0.014695 -0.05993,0.00739 -0.01911,0.055517 -0.0022,0.258387 0.01951,0.1986052 -0.07925,0.2699689 -0.135246,0.011282 -0.191152,-0.098526 -0.0092,-0.037695 -0.03443,-0.125954 -0.02605,-0.091686 -0.03862,-0.1430881 -0.03855,-0.1576333 -0.03193,-0.2790978 0.0092,-0.1257293 0.09609,-0.2159779 0.02406,-0.020411 0.159459,-0.060783 0.138823,-0.041211 0.282749,-0.076405 0.185048,-0.0452505 0.298971,-0.0694768 0.113923,-0.0242263 0.174692,-0.0281914 0.118726,0.0399702 0.181485,0.1481021 0.06619,0.1072939 0.106409,0.2717808 0.01089,0.044549 0.02925,0.1344836 0.01836,0.089935 0.02758,0.12763 0.0011,0.1232153 -0.124114,0.1756192 -0.09405,-0.013319 -0.150869,-0.1120082 -0.05667,-0.1277798 -0.08287,-0.1903753 z"
            style="fill:#e48321" />
            <path id="clothing-title-shadow-h-02"
            d="m 13.911476,0.77541901 q 0.03226,0.0419426 0.03308,0.10896539 4.74e-4,0.0388027 -0.02301,0.1378747 -0.01996,0.099029 -0.01961,0.127249 6.46e-4,0.052913 0.02573,0.084359 0.02857,0.027876 0.106386,0.044566 0.02116,-2.584e-4 0.07412,0.00262 0.05296,0.00288 0.08118,0.00254 0.08113,-9.907e-4 0.123204,-0.022673 0.0456,-0.021725 0.04487,-0.081693 -4.3e-4,-0.035275 -0.01923,-0.1303028 -0.0188,-0.0950276 -0.01945,-0.14794038 -8.62e-4,-0.0705504 0.02327,-0.11670957 0.02413,-0.0461592 0.09085,-0.0716702 0.05984,-0.0113148 0.126775,-0.0191882 0.06694,-0.007873 0.13396,-0.008692 0.123463,-0.001508 0.215523,0.0255928 0.09206,0.0271003 0.138736,0.0935632 0.0502,0.0664198 0.05102,0.13344265 7.75e-4,0.0634953 -0.09515,0.2975175 -0.09244,0.2304515 -0.09003,0.4279925 0.003,0.2433987 0.161116,0.7706741 0.161628,0.5237049 0.162877,0.6260029 0.0011,0.091716 -0.01226,0.1518556 -0.01338,0.06014 -0.06883,0.1419621 -0.05192,0.081779 -0.153746,0.1218307 -0.0983,0.040009 -0.232343,0.041645 -0.05291,6.461e-4 -0.119978,-0.00206 -0.06711,-0.00624 -0.141273,-0.012387 -0.07416,-0.00615 -0.141919,-0.0653 -0.06776,-0.059149 -0.121917,-0.1608014 -0.05485,-0.1580922 -0.05718,-0.3485781 -0.0018,-0.1481557 0.06086,-0.5052533 0.06263,-0.3606251 0.06091,-0.5017258 -0.0018,-0.1446282 -0.03846,-0.2606056 -0.03317,-0.1160204 -0.13194,-0.1148144 -0.144628,0.00177 -0.203174,0.1189062 -0.01979,0.113139 -0.01854,0.215437 0.0021,0.1728483 0.08781,0.5457745 0.08923,0.3728831 0.09082,0.5034012 0.0012,0.102298 -0.01518,0.2012839 -0.01647,0.095458 -0.06448,0.2089418 -0.04805,0.1099561 -0.156929,0.150094 -0.105352,0.040095 -0.2782,0.042205 -0.197541,0.00241 -0.318123,-0.049036 -0.12063,-0.054978 -0.171738,-0.1954761 -0.05115,-0.1440252 -0.05279,-0.2780709 -0.0022,-0.1763758 0.137521,-0.5838062 0.139675,-0.4074304 0.136143,-0.6966868 -0.0018,-0.1446282 -0.107811,-0.4502731 -0.102561,-0.30921555 -0.103078,-0.35154575 -9.9e-4,-0.0811329 0.05128,-0.13469173 0.05227,-0.0535588 0.168417,-0.0761453 0.116149,-0.0225865 0.236085,-0.0240509 0.232816,-0.002843 0.353828,0.0838808 z"
            style="fill:#e48321" />
            <path id="clothing-title-shadow-i-02"
            d="m 17.030518,1.1065486 q 0.01463,0.049989 0.01672,0.1081331 0.0021,0.058144 -0.0067,0.099555 -0.02417,0.1138802 -0.196952,0.3332609 -0.169332,0.2201131 -0.190572,0.3201897 -0.01099,0.051764 -0.0082,0.106457 0.0036,0.051242 0.05443,0.4911976 0.05433,0.4406875 0.0016,0.6891534 -0.03882,0.1828984 -0.143203,0.3518812 -0.0821,0.097978 -0.214603,0.1275588 -0.128317,0.026862 -0.280157,-0.00536 -0.210506,-0.044677 -0.377813,-0.1739505 -0.163123,-0.1319923 -0.181407,-0.2837335 -0.0015,-0.1121052 0.02345,-0.2294363 0.04907,-0.2312113 0.299885,-0.6143489 0.250814,-0.3831375 0.296223,-0.5970943 0.01611,-0.07592 0.01915,-0.1582208 0.003,-0.082301 -0.0079,-0.1495439 -0.01024,-0.070694 -0.04599,-0.2081105 -0.03575,-0.1374163 -0.01817,-0.2202382 0.01318,-0.062117 0.06307,-0.12726162 0.05334,-0.0644127 0.182912,-0.0801895 0.133021,-0.0150443 0.298665,0.0201112 0.158742,0.0336907 0.279835,0.091848 0.121092,0.0581573 0.135727,0.10814592 z"
            style="fill:#e48321" />
            <path id="clothing-title-shadow-n-02"
            d="m 18.703864,1.7009017 q 0.02882,0.2877954 -0.03432,0.6850379 -0.06169,0.394027 -0.09471,0.5958638 -0.03157,0.1986213 -0.0026,0.2116799 0.01608,0.00725 0.02914,-0.021685 0.12043,-0.2668932 0.176861,-0.5549233 0.0611,-0.2897948 0.07286,-0.4702599 0.01322,-0.1836806 0.02337,-0.2061897 0.03192,-0.070743 0.11239,-0.111839 0.08368,-0.039645 0.163446,-0.019136 0.08443,0.018745 0.141995,0.03698 0.06223,0.016471 0.129761,0.046941 0.102898,0.046431 0.171994,0.1163113 0.07055,0.066665 0.0936,0.1699563 -0.006,0.047606 -0.03067,0.1022713 -0.04063,0.090036 -0.260229,0.2850877 -0.218152,0.1918359 -0.268935,0.3043812 -0.01886,0.041803 -0.0258,0.065762 -0.09141,0.2025815 -0.153686,0.7008406 -0.06228,0.4982591 -0.137726,0.6654692 -0.03482,0.077174 -0.07639,0.1435638 -0.04157,0.06639 -0.102115,0.1319561 -0.08514,0.042861 -0.180034,0.038743 -0.0949,-0.00412 -0.188151,-0.046196 -0.0611,-0.027568 -0.106428,-0.055764 -0.04212,-0.026745 -0.160896,-0.1151741 -0.07212,-0.1060757 -0.06086,-0.2596788 0.03074,-0.1796415 0.04161,-0.2637565 0.07851,-0.3283818 0.157843,-0.6757433 0.08255,-0.3459106 0.102472,-0.6388036 -0.0038,-0.017215 -0.0091,-0.031215 -0.0053,-0.014 -0.01961,-0.016588 -0.09894,0.013411 -0.158428,0.1452495 -0.01596,0.035371 -0.02839,0.080076 -0.01098,0.041489 -0.04875,0.3224606 -0.03777,0.2809716 -0.104081,0.7967596 -0.05514,0.122192 -0.154467,0.2050908 -0.09788,0.079683 -0.256033,0.1128184 -0.105173,-0.024235 -0.158073,-0.044235 -0.05435,-0.016784 -0.131525,-0.051607 -0.13827,-0.062391 -0.211208,-0.1494871 -0.07086,-0.074547 -0.07929,-0.167368 -0.0038,-0.094585 0.01859,-0.2470513 0.0098,-0.030391 0.0229,-0.059331 0.01451,-0.032156 0.02176,-0.048234 0.08416,-0.1865037 0.42007,-0.5535492 0.337365,-0.3702611 0.418618,-0.5503335 0.04933,-0.1093297 0.06651,-0.233169 0.02039,-0.1223884 0.0022,-0.2621882 0.0011,-0.1310941 0.005,-0.1912491 0.0054,-0.063371 0.03584,-0.1308978 0.02612,-0.05788 0.07039,-0.095957 0.100899,-0.043488 0.221209,-0.035645 0.12031,0.00784 0.236071,0.060078 0.106114,0.047882 0.17521,0.1177623 0.07376,0.068116 0.110819,0.1661134 z"
            style="fill:#e48321" />
            <path id="clothing-title-shadow-g-02"
            d="m 21.44294,3.4818904 q 0.01352,0.068707 -0.01474,0.1450914 -0.02331,0.075772 -0.07104,0.1369688 -0.03255,0.041725 -0.05547,0.059639 -0.02292,0.017914 -0.05018,0.041391 -0.02509,0.020695 -0.104591,0.0079 -0.07455,-0.013408 -0.138526,-0.063311 -0.0612,-0.047734 -0.08061,-0.1031444 -0.01725,-0.058192 0.02832,-0.1166071 l 0.03255,-0.041725 q 0.03038,-0.038943 0.03722,-0.064924 0.0068,-0.025981 -0.01663,-0.053241 -0.01853,-0.027872 -0.02409,-0.032212 -0.04451,-0.034715 -0.108263,-0.021809 -0.06097,0.015076 -0.131572,0.053964 -0.0706,0.038887 -0.141532,0.095411 -0.06598,0.055911 -0.115884,0.1198892 -0.06726,0.086231 -0.08562,0.1613917 -0.01558,0.07733 0.0029,0.1454254 0.02125,0.070265 0.0741,0.1114893 0.02782,0.021697 0.07082,0.023923 0.043,0.00223 0.07861,-0.014743 0.03499,-0.021919 0.03722,-0.064924 0.005,-0.040835 -0.01257,-0.081392 -0.02782,-0.021697 -0.04172,-0.032546 -0.04172,-0.032546 -0.03054,-0.06409 l 0.02821,-0.036161 q 0.03254,-0.041725 0.06754,-0.063644 0.03994,-0.022531 0.08356,-0.015354 0.03338,0.026037 0.107873,0.079667 0.07727,0.0558 0.113435,0.084007 0.09458,0.07377 0.152658,0.1369697 0.06303,0.062588 0.09758,0.1387497 -0.04807,0.078832 -0.10448,0.1511552 -0.06292,0.080668 -0.186873,0.2166351 -0.119,0.1353553 -0.151546,0.1770801 -0.166511,0.2593616 -0.359059,0.552103 -0.187596,0.2921295 -0.263536,0.3894874 -0.02604,0.03338 -0.0632,0.058081 -0.03438,0.026871 -0.118165,-0.020585 -0.06676,-0.052073 -0.08306,-0.1229499 -0.0076,-0.082003 -0.01252,-0.1216143 -0.155328,0.00412 -0.290795,-0.034438 -0.135466,-0.038554 -0.263422,-0.138361 -0.155773,-0.1215036 -0.205342,-0.2988626 -0.04957,-0.177359 0.0042,-0.3725203 0.06865,-0.1969971 0.171018,-0.3855934 0.107317,-0.1892083 0.254858,-0.3783607 0.388377,-0.4979161 0.876671,-0.7568314 0.400004,-0.1801389 0.759561,0.024259 0.09458,0.07377 0.162504,0.1759686 0.0701,0.099417 0.08417,0.2132983 z"
            style="fill:#e48321" />
        </g>
        <g id="title-shadow-01-definition"
            style="font-size:3.52778px;line-height:1.25;display:inline;fill:#ae2600;stroke-width:0.264583"
            aria-hidden="true">
            <path id="clothing-title-shadow-c-01"
            d="m 6.4941532,3.9514084 q 0.087518,0.0044 0.169051,0.051448 0.078952,0.044641 0.1641219,0.1240072 0.034431,0.056195 0.034136,0.1186074 Q 6.8611672,4.307883 6.8452111,4.350879 6.8316601,4.391294 6.8124201,4.411941 6.7619141,4.46614 6.7051913,4.485613 6.6482923,4.5001 6.5896356,4.464728 L 6.5586646,4.435867 Q 6.4993046,4.380551 6.4485656,4.35738 6.3952466,4.331804 6.3362941,4.35884 q -0.050506,0.054199 -0.045287,0.1313928 0.00264,0.074789 0.049797,0.1380235 0.037012,0.0586 0.086752,0.1242399 0.047159,0.063235 0.098777,0.1113354 0.051618,0.048101 0.1102749,0.083473 0.061062,0.032791 0.1240017,0.048044 0.087694,0.00939 0.169346,-0.010965 0.079072,-0.022757 0.1295775,-0.076956 0.028861,-0.030971 0.052032,-0.081709 0.011146,-0.037834 -0.00715,-0.1320394 -0.02088,-0.09661 0.015196,-0.1353236 0.021645,-0.023228 0.053614,-0.036836 0.1865897,0.053325 0.3725328,0.1590901 0.1833622,0.1033602 0.3407965,0.2500679 0.1703387,0.1587329 0.2820772,0.3544776 0.1115625,0.1907587 0.1299182,0.3573479 0.020761,0.1640083 -0.017663,0.2776865 -0.041005,0.1112732 -0.1323966,0.209347 -0.029036,0.025985 -0.043467,0.04147 L 8.083375,6.1942382 Q 7.9390723,6.3490915 7.7331232,6.3838117 7.5295791,6.4159511 7.2459706,6.30115 6.9597813,6.1839439 6.6500745,5.8953386 6.3739193,5.6379988 6.1907384,5.3274586 6.0073817,5.0119325 5.9431598,4.6772283 5.9231025,4.5331637 5.9704432,4.3892182 6.0176081,4.2402868 6.11862,4.1318894 6.279758,3.9589698 6.4941532,3.9514084 Z"/>
            <path id="clothing-title-shadow-l-01"
            d="m 7.996057,2.7042301 q 0.026554,0.067706 0.072997,0.272824 0.044396,0.2022444 0.057455,0.2449141 0.015933,0.040624 0.036785,0.082075 0.020853,0.041451 0.051545,0.084557 0.051154,0.071844 0.1101473,0.1121221 0.059821,0.035358 0.1631391,0.052738 0.074281,-0.035567 0.064141,-0.1106296 -0.00727,-0.077109 -0.01414,-0.1415046 -0.00687,-0.064395 0.039105,-0.097134 0.034485,-0.024554 0.088213,-0.028164 0.2382021,0.042598 0.4654171,0.3008909 0.1882923,0.2340383 0.3745384,0.4652029 0.2332622,0.327608 0.2534499,0.538428 0.018142,0.2079461 -0.094462,0.366074 Q 9.5954173,4.8957317 9.4541667,5.013627 9.3129161,5.1315223 9.2410723,5.1826763 9.068647,5.3054459 8.9139922,5.3376108 8.7593374,5.3697758 8.5860132,5.2723221 8.5233642,5.2086629 8.4619794,5.1224503 8.3351175,4.9442775 8.176319,4.4597146 8.0154742,3.9722779 7.8947508,3.8027264 7.8292737,3.7107662 7.5768399,3.5873575 7.3244061,3.4639487 7.2609752,3.3748624 7.2139135,3.308766 7.2173152,3.2283922 7.2186752,3.1451442 7.2819842,3.039435 7.3481262,2.962026 7.4117855,2.8993772 7.4783185,2.8346822 7.553036,2.7814819 q 0.086213,-0.061385 0.1723796,-0.092423 0.086995,-0.035958 0.1895309,-0.044005 0.042233,0.00457 0.056556,0.024691 0.015151,0.015196 0.024555,0.034485 z"/>
            <path id="clothing-title-shadow-o-01"
            d="m 10.16625,1.5420119 q 0.278937,0.129002 0.519162,0.4170514 0.238823,0.2848127 0.534894,0.9677593 l 0.136109,0.3139613 q 0.06629,0.2327251 0.04312,0.454243 -0.02133,0.2168779 -0.161463,0.3814441 -0.127299,0.132087 -0.315028,0.2134714 -0.129469,0.056127 -0.239199,0.069092 -0.108326,0.016202 -0.292949,-0.046026 Q 10.204871,4.2475436 10.005656,4.0186157 9.8064408,3.7896879 9.6689291,3.4724899 9.6142051,3.3462581 9.5621753,3.1996331 9.511979,3.0483683 9.4385652,2.772593 9.3776315,2.2683961 9.3937789,2.0306946 9.408523,1.7897565 9.5526598,1.6965101 9.6967966,1.6032638 9.734234,1.5831889 q 0.040674,-0.021478 0.076278,-0.036913 0.093865,-0.040692 0.177701,-0.042432 0.082433,-0.00498 0.178037,0.038168 z M 9.9020732,1.9526046 q -0.058261,0.025257 -0.070011,0.095716 -0.013153,0.067222 -0.00365,0.1246225 0.0095,0.0574 0.032928,0.1203009 0.023424,0.062901 0.037456,0.095268 L 9.96194,2.5341644 q 0.021048,0.048551 0.07899,0.058037 0.05978,0.00485 0.127747,-0.024621 0.06473,-0.028064 0.09882,-0.073602 0.03592,-0.050178 0.01487,-0.098729 l -0.05753,-0.1327053 q -0.03087,-0.071208 -0.05699,-0.1137153 -0.02288,-0.043911 -0.07037,-0.100226 -0.04889,-0.059552 -0.09302,-0.090404 -0.044135,-0.030852 -0.1023958,-0.00559 z"/>
            <path id="clothing-title-shadow-t-01"
            d="m 12.265335,1.3842219 q -0.02018,-0.04252 -0.04498,-0.07319 -0.02556,-0.034115 -0.06683,-0.057553 -0.02715,-0.00848 -0.04672,0.017492 -0.01613,0.025217 -0.01696,0.054296 0.05452,0.2480799 0.213429,0.527398 0.158152,0.2758724 0.316303,0.5517449 0.158152,0.2758725 0.212672,0.5239524 0.04922,0.223961 0.02817,0.3911265 -0.02105,0.1671655 -0.163307,0.2923396 -0.101247,0.098102 -0.266633,0.1344492 -0.110258,0.024231 -0.223128,0.020141 -0.108667,-0.0014 -0.223392,-0.030369 -0.125403,-0.04468 -0.19098,-0.1458508 -0.06558,-0.101171 -0.0989,-0.2527754 -0.02196,-0.099921 -0.03241,-0.2132076 -0.01121,-0.1167322 -0.01643,-0.1733755 0.0041,-0.11287 0.09254,-0.6307611 0.0877,-0.5213367 0.02636,-0.8004265 -0.01253,-0.040589 -0.01708,-0.061263 l -0.0091,-0.041347 q -0.0053,-0.024119 -0.03396,-0.039492 -0.02866,-0.015373 -0.06009,0.00598 -0.02041,0.055053 -0.0083,0.2582644 0.01484,0.1990088 -0.08557,0.2680322 -0.135474,0.0081 -0.188784,-0.1029897 -0.0083,-0.037901 -0.03146,-0.1267282 -0.02389,-0.092273 -0.03525,-0.1439561 -0.03483,-0.1584954 -0.02537,-0.279771 0.01216,-0.1254783 0.101135,-0.2136606 0.02454,-0.01984 0.160843,-0.0570202 0.139753,-0.0379374 0.284467,-0.0697409 0.186059,-0.0408903 0.30052,-0.0624332 0.11446,-0.0215429 0.175307,-0.0240791 0.117753,0.0427487 0.177955,0.15232527 0.06365,0.10881933 0.09999,0.27420593 0.0098,0.044792 0.02609,0.1351338 0.01624,0.090342 0.02457,0.1282427 -0.0018,0.1232067 -0.128206,0.1726546 -0.09371,-0.015525 -0.148195,-0.115522 -0.05365,-0.129076 -0.07837,-0.1922698 z"/>
            <path id="clothing-title-shadow-h-01"
            d="m 14.165974,0.74503258 q 0.0313,0.0426672 0.03059,0.10969123 -4.11e-4,0.0388034 -0.02615,0.13731424 -0.02221,0.098548 -0.02251,0.12676885 -5.6e-4,0.052914 0.0238,0.084923 0.02792,0.02852 0.105341,0.046979 0.02117,2.241e-4 0.07404,0.00431 0.05288,0.00409 0.0811,0.00439 0.08113,8.592e-4 0.12369,-0.019858 0.04608,-0.02068 0.04672,-0.080649 3.73e-4,-0.035276 -0.01626,-0.1307073 -0.01663,-0.0954315 -0.01607,-0.14834524 7.47e-4,-0.0705516 0.02593,-0.11614874 0.02518,-0.0455971 0.09246,-0.0695805 0.06008,-0.009948 0.127179,-0.0162932 0.0671,-0.006345 0.134123,-0.005636 0.123466,0.001307 0.214884,0.0304992 0.09142,0.0291919 0.136567,0.0967015 0.04868,0.067547 0.04797,0.13457108 -6.73e-4,0.0634965 -0.10191,0.295271 -0.09767,0.2282844 -0.09977,0.425829 -0.0026,0.2434031 0.143506,0.7741467 0.149648,0.5272533 0.148565,0.6295532 -9.72e-4,0.091717 -0.01572,0.1515366 -0.01475,0.059819 -0.07205,0.1403562 -0.05377,0.080574 -0.156483,0.1182943 -0.09918,0.037758 -0.233232,0.036338 -0.05291,-5.603e-4 -0.1199,-0.0048 -0.06695,-0.00776 -0.140954,-0.015604 -0.074,-0.00784 -0.140393,-0.068518 -0.06639,-0.060679 -0.11822,-0.1635388 -0.05123,-0.1593015 -0.04922,-0.3497909 0.0016,-0.1481585 0.07237,-0.5037346 0.07083,-0.3591037 0.07233,-0.500207 0.0015,-0.1446308 -0.03251,-0.2614146 -0.03052,-0.1167464 -0.129288,-0.1177923 -0.14463,-0.00153 -0.205832,0.1142437 -0.02236,0.1126585 -0.02344,0.2149584 -0.0018,0.1728516 0.07534,0.5476344 0.0807,0.3748202 0.07932,0.5053408 -0.0011,0.1022999 -0.01977,0.2008854 -0.01865,0.095058 -0.06923,0.2074176 -0.05054,0.1088321 -0.16031,0.1464776 -0.106238,0.037683 -0.27909,0.035852 -0.197544,-0.00209 -0.316922,-0.056276 -0.11934,-0.057711 -0.167232,-0.1993375 -0.04786,-0.1451539 -0.04644,-0.279202 0.0019,-0.1763791 0.150794,-0.5805196 0.148926,-0.4041405 0.151989,-0.6934022 0.0015,-0.1446309 -0.09752,-0.4526138 -0.09549,-0.31147315 -0.09504,-0.35380413 8.59e-4,-0.0811344 0.05433,-0.13348783 0.05347,-0.0523534 0.170108,-0.0722863 0.116635,-0.0199328 0.236572,-0.0186628 0.232821,0.002465 0.351825,0.0919249 z"/>
            <path id="clothing-title-shadow-i-01" 
            d="m 17.274951,1.1457667 q 0.01353,0.0503 0.01433,0.108476 8e-4,0.058176 -0.0089,0.099383 -0.02668,0.1133184 -0.204267,0.3288282 -0.174154,0.2163182 -0.1976,0.315901 -0.01213,0.051508 -0.01052,0.1062506 0.0024,0.051308 0.04356,0.4922803 0.04458,0.4417803 -0.01363,0.6890204 -0.04285,0.1819963 -0.150942,0.3486315 -0.08425,0.096141 -0.217369,0.1227863 -0.12888,0.02402 -0.279971,-0.011552 -0.209467,-0.049317 -0.373877,-0.1822554 -0.160167,-0.135564 -0.175095,-0.2876721 10e-4,-0.1121099 0.02851,-0.2288622 0.05417,-0.2300707 0.313385,-0.6075733 0.259218,-0.3775027 0.309343,-0.5904039 0.01779,-0.075546 0.02265,-0.157759 0.0049,-0.082213 -0.0046,-0.1496827 -0.0087,-0.070903 -0.04138,-0.2090758 -0.0327,-0.1381725 -0.0133,-0.2205859 0.01455,-0.06181 0.06587,-0.12583705 0.05475,-0.0632185 0.184638,-0.0761287 0.133322,-0.0121017 0.298149,0.0267049 0.157959,0.0371897 0.277736,0.0980081 0.119778,0.060819 0.133305,0.1111184 z"/>
            <path id="clothing-title-shadow-n-01"
            d="m 18.933306,1.7756841 q 0.02264,0.2883473 -0.049,0.6841443 -0.07012,0.3926132 -0.107465,0.5936955 -0.03582,0.1978984 -0.0072,0.2115748 0.01592,0.0076 0.0296,-0.021056 0.126126,-0.2642488 0.188722,-0.5510023 0.0673,-0.2884177 0.08293,-0.468589 0.01715,-0.1833549 0.02779,-0.2056409 0.03343,-0.070042 0.114763,-0.1094028 0.08451,-0.037841 0.163819,-0.015626 0.08401,0.020552 0.141169,0.040017 0.06187,0.017802 0.128724,0.049713 0.101879,0.048627 0.16946,0.1199735 0.0691,0.068163 0.08994,0.1719248 -0.007,0.047467 -0.03285,0.1015899 -0.04255,0.089144 -0.266284,0.2794408 -0.222216,0.187113 -0.275401,0.2985432 -0.01975,0.041388 -0.02721,0.065194 -0.09573,0.2005744 -0.168683,0.6973832 -0.07295,0.4968088 -0.151967,0.6623622 -0.03647,0.076409 -0.07945,0.1418924 -0.04298,0.065483 -0.104922,0.1297356 -0.08603,0.041025 -0.180824,0.034872 -0.09479,-0.00615 -0.187116,-0.050221 -0.06049,-0.028872 -0.105208,-0.058033 -0.04153,-0.027642 -0.158389,-0.1185985 -0.06982,-0.107598 -0.05527,-0.2609244 0.03459,-0.1789407 0.04725,-0.2628034 0.08554,-0.3266223 0.1723,-0.6722025 0.08995,-0.3440605 0.116149,-0.6364588 -0.0035,-0.017294 -0.0085,-0.031404 -0.005,-0.01411 -0.01925,-0.017005 -0.0992,0.011286 -0.161506,0.1418182 -0.01672,0.035021 -0.0301,0.079448 -0.01187,0.041244 -0.05565,0.3213409 -0.04378,0.2800971 -0.121145,0.7943441 -0.05775,0.1209813 -0.158831,0.2017307 -0.09957,0.077566 -0.258393,0.1073011 -0.104629,-0.026485 -0.157088,-0.047615 -0.05398,-0.017946 -0.130388,-0.054416 -0.1369,-0.065342 -0.207953,-0.1539827 -0.06925,-0.07605 -0.07568,-0.1690301 -0.0017,-0.094644 0.02388,-0.2465957 0.01049,-0.030173 0.02417,-0.058827 0.0152,-0.031837 0.02279,-0.047756 0.08814,-0.1846558 0.431845,-0.5444123 0.345229,-0.3629402 0.430326,-0.5412286 0.05167,-0.1082465 0.0715,-0.2316889 0.02301,-0.1219228 0.0078,-0.2620807 0.0039,-0.1310403 0.0091,-0.1910974 0.0067,-0.063241 0.03864,-0.1300989 0.02735,-0.057307 0.07243,-0.094426 0.101808,-0.041314 0.221923,-0.030892 0.120114,0.010422 0.234728,0.065128 0.105062,0.050147 0.172643,0.1214931 0.07228,0.069682 0.107231,0.168452 z"/>
            <path id="clothing-title-shadow-g-01"
            d="m 21.632737,3.6130939 q 0.01209,0.068973 -0.01775,0.1447538 -0.02488,0.075272 -0.07388,0.1354628 -0.0334,0.041039 -0.05669,0.058473 -0.02329,0.017434 -0.05103,0.040339 -0.02552,0.02017 -0.104732,0.00572 -0.07425,-0.014954 -0.137181,-0.066176 -0.06019,-0.048995 -0.07845,-0.1047974 -0.01603,-0.058538 0.03073,-0.1159935 l 0.03341,-0.04104 q 0.03118,-0.038304 0.03856,-0.064136 0.0074,-0.025833 -0.01552,-0.053575 -0.01794,-0.028251 -0.02341,-0.032705 -0.04378,-0.035633 -0.107785,-0.024054 -0.06127,0.013806 -0.132666,0.051218 -0.07139,0.037412 -0.143484,0.092449 -0.06713,0.054528 -0.118351,0.1174551 -0.06904,0.084815 -0.08895,0.1595776 -0.01718,0.07699 -1.31e-4,0.145454 0.01979,0.070691 0.07177,0.1130052 0.02736,0.022271 0.07031,0.025389 0.04295,0.00312 0.0789,-0.013106 0.03544,-0.021187 0.03856,-0.064136 0.0059,-0.040722 -0.01088,-0.081635 -0.02736,-0.02227 -0.04104,-0.033406 -0.04104,-0.033406 -0.0292,-0.06471 l 0.02895,-0.035567 q 0.03341,-0.04104 0.06885,-0.062227 0.0404,-0.021696 0.08386,-0.013615 0.03283,0.026724 0.106194,0.081892 0.0761,0.057394 0.111666,0.086346 0.09302,0.07572 0.149777,0.1401125 0.06172,0.063884 0.09468,0.1407476 -0.04969,0.077816 -0.107598,0.1489513 -0.06458,0.079343 -0.191335,0.2127049 -0.121787,0.132853 -0.155193,0.1738925 -0.171865,0.2558452 -0.370455,0.5445221 -0.193627,0.2881679 -0.271573,0.3839266 -0.02672,0.032832 -0.06439,0.056755 -0.03493,0.02615 -0.117712,-0.023036 -0.06566,-0.053449 -0.08049,-0.1246493 -0.0059,-0.082144 -0.01,-0.1218482 -0.15538,8.874e-4 -0.290016,-0.040474 -0.134637,-0.041361 -0.260491,-0.1438053 -0.153214,-0.1247146 -0.199086,-0.3030654 -0.04587,-0.1783508 0.01197,-0.3723519 0.07273,-0.1955279 0.178994,-0.3819562 0.111226,-0.1869372 0.262666,-0.3729828 0.398641,-0.4897375 0.89221,-0.7384495 0.403661,-0.1717874 0.758892,0.040039 0.09302,0.075719 0.158813,0.1793076 0.06802,0.1008522 0.07972,0.2150014 z" />
        </g>
        <g id="title-text-definition"
            aria-label="Clothing"
            transform="translate(0.08095535,0.16457261)"
            style="font-size:3.52778px;line-height:1.25;display:inline;fill:#ffe9ad;stroke:#342112;stroke-width:0.0661458">
            <path
                d="m 6.7259598,3.4880023 q 0.087251,0.00812 0.1667066,0.0586 0.07698,0.047963 0.1586916,0.1308845 0.032006,0.057611 0.029054,0.1199536 -0.00295,0.062343 -0.020725,0.1046202 -0.01526,0.039801 -0.035362,0.05961 -0.052768,0.051999 -0.110269,0.069038 -0.057464,0.012051 -0.1145614,-0.025788 l -0.029713,-0.030153 q -0.056951,-0.057794 -0.1066565,-0.083105 -0.052182,-0.027824 -0.1122319,-0.00332 -0.052768,0.051998 -0.050842,0.1293448 -5.499e-4,0.074833 0.043874,0.1400191 0.034482,0.060123 0.081382,0.1278218 0.044424,0.065186 0.093946,0.1154412 0.049522,0.050256 0.1066198,0.088094 0.05961,0.035362 0.1218431,0.053282 0.087214,0.013114 0.1696592,-0.00374 0.079969,-0.019369 0.1327374,-0.071368 0.030153,-0.029713 0.055465,-0.079419 0.012747,-0.037325 -0.00152,-0.1322241 -0.016746,-0.097412 0.020945,-0.1345537 0.022615,-0.022285 0.055135,-0.034519 0.1841494,0.061223 0.3654194,0.1748115 0.1787939,0.1110755 0.3298372,0.264355 0.163424,0.1658435 0.2667245,0.3661693 0.1033372,0.195337 0.1145813,0.3625568 0.013757,0.1647436 -0.029473,0.2766823 Q 8.3815201,5.6405224 8.2860349,5.734615 8.2559179,5.75934 8.2408419,5.774196 L 8.2182204,5.79648 Q 8.0674536,5.9450472 7.8602126,5.9709648 7.6554845,5.9944063 7.3770226,5.8676309 7.0960845,5.7383427 6.7989501,5.4368092 6.5340052,5.1679417 6.3642161,4.8498819 6.1944636,4.5268331 6.1445546,4.1896974 6.130651,4.0449094 6.1840793,3.9031107 6.2375442,3.756323 6.3430809,3.652326 6.5114371,3.4864259 6.7259598,3.4880023 Z"
            id="clothing-title-text-c" />
            <path
            d="m 8.2736092,2.3071146 q 0.023789,0.068726 0.061881,0.2755581 0.036164,0.2038775 0.047483,0.2470413 0.014273,0.041236 0.033429,0.083498 0.019156,0.042262 0.048076,0.086577 0.0482,0.073858 0.105513,0.1164937 0.058339,0.037753 0.1608678,0.059306 Q 8.80652,3.1430617 8.799431,3.0676494 8.795301,2.9903094 8.791041,2.925688 8.786781,2.861067 8.834051,2.830218 8.869503,2.807082 8.923333,2.805652 9.159613,2.857869 9.3761739,3.125157 9.554827,3.3666337 9.7315521,3.6051561 9.9513461,3.9419481 9.9629736,4.153413 9.9726736,4.3619236 9.853753,4.5153582 9.7828439,4.5616308 9.6369316,4.673705 9.4910193,4.7857792 9.4171614,4.8339797 9.2399025,4.9496608 9.0840713,4.9755318 8.92824,5.0014029 8.7590075,4.8970053 8.6989898,4.8308595 8.6411493,4.74223 8.5216122,4.5590624 8.3825812,4.0684622 8.2416223,3.5749076 8.1278692,3.400603 8.0661726,3.3060649 7.8189474,3.1725275 7.5717221,3.0389901 7.5119536,2.9474063 7.4676092,2.8794571 7.4742653,2.7992872 q 0.00473,-0.083124 0.072274,-0.1861813 0.069225,-0.074665 0.1353705,-0.1346824 0.0691,-0.061946 0.1459123,-0.1120742 0.088629,-0.057841 0.1759835,-0.085361 0.08838,-0.032402 0.1911584,-0.036288 0.042013,0.00628 0.055509,0.026963 0.014522,0.015798 0.023136,0.035451 z"
            id="clothing-title-text-l"/>
            <path
            d="m 10.482615,1.2334407 q 0.273773,0.1396242 0.502754,0.4366911 0.227703,0.2937787 0.497314,0.987597 l 0.123945,0.3189591 q 0.05729,0.2351002 0.02564,0.4555645 -0.02965,0.2158983 -0.176,0.3749586 -0.13228,0.1270982 -0.322997,0.2012094 -0.13153,0.051111 -0.241677,0.05985 -0.10887,0.012028 -0.290965,-0.057248 Q 10.417252,3.9384584 10.22698,3.7020451 10.036708,3.4656319 9.9114858,3.1433845 9.8616523,3.0151432 9.8152947,2.8666274 9.7709476,2.7135456 9.7081841,2.4351531 9.6666682,1.9289873 9.6919368,1.6920818 q 0.023991,-0.2401937 0.1716041,-0.327833 0.1476131,-0.087639 0.1857941,-0.106261 0.04147,-0.019899 0.07764,-0.033955 0.09536,-0.037056 0.1792,-0.035573 0.08256,-0.00181 0.17644,0.044981 z m -0.279759,0.400139 q -0.05919,0.023 -0.07364,0.092956 -0.01573,0.066667 -0.0084,0.1243903 0.0073,0.057723 0.02828,0.1214772 0.02099,0.063754 0.03377,0.096637 l 0.0575,0.1479707 q 0.01917,0.049324 0.0767,0.061029 0.05954,0.00714 0.128598,-0.019694 0.06577,-0.025556 0.101578,-0.06975 0.03782,-0.048761 0.01866,-0.098084 L 10.51348,1.9556924 Q 10.48537,1.8833514 10.4609,1.8398713 10.43972,1.7951133 10.39444,1.7370157 10.34788,1.6756297 10.30496,1.6431047 10.26204,1.6105797 10.202854,1.6335847 Z"
            id="clothing-title-text-o"/>
            <path
            d="m 12.581424,1.1550465 q -0.01862,-0.043229 -0.04228,-0.074783 -0.0243,-0.035025 -0.06468,-0.059954 -0.02682,-0.00947 -0.04733,0.015775 -0.01704,0.024611 -0.01893,0.05364 0.04543,0.2499049 0.194032,0.5348383 0.147974,0.2814624 0.295948,0.5629249 0.147975,0.2814625 0.193402,0.5313674 0.04101,0.2256086 0.01387,0.3918941 -0.02714,0.1662855 -0.173871,0.2861826 -0.104761,0.09434 -0.271364,0.1246251 -0.111069,0.02019 -0.223714,0.011981 -0.108544,-0.00537 -0.222135,-0.038504 -0.123687,-0.049228 -0.185528,-0.152726 -0.06184,-0.1034977 -0.0896,-0.2562174 -0.0183,-0.1006561 -0.0246,-0.2142487 -0.0069,-0.1170635 -0.01009,-0.1738598 0.0082,-0.1126454 0.11551,-0.6269619 0.106671,-0.5177874 0.05557,-0.7989305 -0.01104,-0.04102 -0.01483,-0.061845 l -0.0076,-0.041651 q -0.0044,-0.024296 -0.0325,-0.040705 -0.02808,-0.016409 -0.06027,0.00378 -0.02241,0.054271 -0.01768,0.2577907 0.0076,0.199418 -0.0953,0.2647295 -0.13568,0.00315 -0.184899,-0.1098134 -0.0069,-0.03818 -0.02682,-0.1277924 -0.02051,-0.093083 -0.02997,-0.145147 -0.02902,-0.1596615 -0.01514,-0.28051051 0.01673,-0.12495089 0.108868,-0.20982591 0.02524,-0.018931 0.162818,-0.05111 0.141045,-0.0328099 0.286823,-0.0593089 0.187428,-0.0340702 0.302599,-0.05142 0.115171,-0.0173498 0.176069,-0.0176629 0.116115,0.0470193 0.172275,0.15872063 0.05963,0.11107044 0.08992,0.27767369 0.0082,0.045122 0.02114,0.1359961 0.01293,0.090874 0.01987,0.1290543 -0.0063,0.1230581 -0.134424,0.1678589 -0.09308,-0.018936 -0.143879,-0.1208554 -0.0489,-0.1309487 -0.0713,-0.195003 z"
            id="clothing-title-text-t" />
            <path
            d="m 14.497657,0.5836427 q 0.02982,0.0437122 0.02682,0.11067283 -0.0017,0.0387667 -0.03083,0.13634006 -0.02557,0.0977313 -0.02683,0.12592526 -0.0024,0.0528637 0.02088,0.0856873 0.02693,0.029457 0.103674,0.050553 0.02115,9.476e-4 0.07385,0.00684 0.05271,0.00589 0.0809,0.00716 0.08106,0.00363 0.124296,-0.015618 0.04676,-0.019092 0.04945,-0.079005 0.0016,-0.0352429 -0.01178,-0.13118988 -0.01336,-0.0959442 -0.01099,-0.14880783 0.0032,-0.0704849 0.02988,-0.11519461 0.02672,-0.0447097 0.09479,-0.066379 0.06039,-0.007888 0.127662,-0.0119361 0.06728,-0.004048 0.134237,-0.001048 0.123349,0.005527 0.213716,0.0378271 0.09037,0.0322999 0.133181,0.10131345 0.04634,0.0691715 0.04334,0.13613214 -0.0028,0.0634364 -0.111944,0.29161763 -0.10542,0.2248121 -0.114263,0.4221694 -0.0109,0.2431726 0.116958,0.7786004 0.131536,0.5320608 0.126957,0.6342639 -0.0041,0.09163 -0.02089,0.1509109 -0.01678,0.05928 -0.0768,0.1378113 -0.0565,0.078689 -0.160436,0.1128758 -0.100416,0.034345 -0.234338,0.028344 -0.05286,-0.00237 -0.119666,-0.00889 -0.06664,-0.010049 -0.140338,-0.020414 -0.07369,-0.010365 -0.137969,-0.073277 -0.06428,-0.062913 -0.11256,-0.1674845 -0.04576,-0.1609598 -0.03723,-0.3512689 0.0066,-0.1480182 0.08954,-0.5009663 0.08307,-0.3564724 0.08939,-0.4974423 0.0065,-0.144494 -0.02356,-0.2623732 -0.02651,-0.1177214 -0.125186,-0.1221429 -0.144494,-0.00647 -0.209617,0.1071405 -0.0262,0.1118283 -0.03078,0.2140313 -0.0077,0.172688 0.05658,0.5498904 0.06784,0.3773599 0.062,0.5077569 -0.0046,0.1022029 -0.02662,0.2000923 -0.02189,0.094365 -0.07628,0.20493 -0.05424,0.1070406 -0.165223,0.1409118 -0.107465,0.034029 -0.280153,0.026291 -0.197357,-0.00884 -0.314813,-0.067076 -0.117297,-0.061757 -0.16032,-0.2049379 -0.04286,-0.1467048 -0.03686,-0.2806261 0.0079,-0.1762122 0.170551,-0.5750256 0.162655,-0.3988133 0.175604,-0.6878013 0.0065,-0.1444939 -0.08199,-0.4556829 -0.08478,-0.31455824 -0.08289,-0.35684917 0.0036,-0.0810576 0.05887,-0.13155246 0.05523,-0.0504949 0.17248,-0.066429 0.117247,-0.0159341 0.237071,-0.0105648 0.2326,0.0104227 0.348477,0.10389807 z"
            id="clothing-title-text-h"/>
            <path
            d="m 17.58562,1.0855748 q 0.01192,0.050705 0.01086,0.1088774 -0.0011,0.058172 -0.01206,0.099049 -0.03028,0.1124108 -0.21464,0.3221532 -0.180958,0.2106599 -0.207564,0.3094452 -0.01376,0.051096 -0.0139,0.1058615 7.81e-4,0.051359 0.02786,0.4934183 0.03048,0.4429764 -0.03557,0.6882365 -0.04863,0.1805386 -0.161973,0.3436454 -0.08727,0.093408 -0.22117,0.1157986 -0.129579,0.019902 -0.279461,-0.020466 -0.207789,-0.055965 -0.36788,-0.1940746 -0.155767,-0.1405982 -0.165841,-0.2931046 0.0046,-0.1120204 0.03579,-0.2278376 0.06147,-0.2282281 0.332583,-0.5972804 0.271114,-0.3690523 0.327997,-0.5802485 0.02018,-0.074941 0.02766,-0.1569574 0.0075,-0.082017 1.46e-4,-0.1497541 -0.0064,-0.071144 -0.0347,-0.210288 -0.02829,-0.1391444 -0.0063,-0.2208978 0.01651,-0.061315 0.06985,-0.12367452 0.05674,-0.0614421 0.18697,-0.0702075 0.133639,-0.007848 0.297146,0.0361904 0.156694,0.0422034 0.274473,0.10680709 0.11778,0.0646038 0.129697,0.11530903 z"
            id="clothing-title-text-i" />
            <path
            d="m 19.218433,1.7637099 q 0.01406,0.2888928 -0.06931,0.6823862 -0.08176,0.3903562 -0.125059,0.5902401 -0.04169,0.1967467 -0.01345,0.2112684 0.01569,0.00807 0.03021,-0.020167 0.133922,-0.2603844 0.205011,-0.5451514 0.07584,-0.2862906 0.09682,-0.4659177 0.02259,-0.1827643 0.03389,-0.2047245 0.0355,-0.069017 0.117962,-0.1059444 0.0856,-0.035313 0.164211,-0.010751 0.08336,0.023039 0.139918,0.044194 0.06131,0.019632 0.12719,0.053516 0.100389,0.051633 0.16582,0.1249558 0.06705,0.070186 0.08479,0.1745212 -0.0084,0.047237 -0.03586,0.100569 -0.04518,0.08784 -0.274469,0.2714051 -0.227678,0.1804274 -0.284151,0.290228 -0.02098,0.040783 -0.02913,0.064357 -0.101652,0.1976412 -0.18933,0.692063 -0.08768,0.4944219 -0.171581,0.6575543 -0.03872,0.075292 -0.08363,0.1394689 -0.04491,0.064177 -0.108731,0.1265607 -0.08722,0.038451 -0.181779,0.029484 -0.09456,-0.00897 -0.185542,-0.055758 -0.05961,-0.030657 -0.103437,-0.061134 -0.04069,-0.028864 -0.154795,-0.1232524 -0.06659,-0.1096253 -0.0475,-0.2624517 0.03989,-0.1778338 0.05504,-0.2612832 0.0952,-0.3239366 0.192197,-0.666786 0.100132,-0.3412359 0.135009,-0.6327266 -0.003,-0.017389 -0.0075,-0.031641 -0.0046,-0.014252 -0.01873,-0.017569 -0.0995,0.00833 -0.165649,0.1369565 -0.01775,0.034509 -0.03245,0.078519 -0.01309,0.040873 -0.06517,0.3195454 -0.05209,0.2786724 -0.144694,0.7903936 -0.06131,0.1192121 -0.164755,0.1969221 -0.101827,0.074573 -0.261467,0.099576 -0.103796,-0.029583 -0.155604,-0.052262 -0.05342,-0.019542 -0.128714,-0.058266 -0.134898,-0.069381 -0.203286,-0.1600937 -0.06696,-0.078074 -0.07063,-0.1712044 0.0011,-0.094654 0.0312,-0.2457771 0.01139,-0.029848 0.02591,-0.058082 0.01613,-0.031372 0.0242,-0.047058 0.09358,-0.1819553 0.447831,-0.5313401 0.35586,-0.3525219 0.446217,-0.528203 0.05486,-0.1066634 0.07835,-0.2294621 0.02662,-0.1211852 0.01561,-0.2617327 0.0078,-0.1308663 0.01479,-0.190742 0.0086,-0.063013 0.04249,-0.1288932 0.02904,-0.056469 0.07521,-0.092232 0.102992,-0.038271 0.222743,-0.024284 0.119751,0.013987 0.232689,0.072073 0.103527,0.053246 0.168958,0.1265693 0.07018,0.0718 0.102178,0.1715639 z"
            id="clothing-title-text-n" />
            <path
            d="m 21.859626,3.6741883 q 0.01018,0.06928 -0.02173,0.1442102 -0.02694,0.074558 -0.07758,0.1333783 -0.03452,0.040104 -0.05828,0.05689 -0.02376,0.016786 -0.05212,0.038919 -0.02606,0.01946 -0.10485,0.00284 -0.07381,-0.016992 -0.135308,-0.069927 -0.05882,-0.050633 -0.07554,-0.1069168 -0.01442,-0.058957 0.03392,-0.1151037 l 0.03452,-0.040104 q 0.03222,-0.037431 0.04031,-0.063051 0.0081,-0.02562 -0.01404,-0.053982 -0.01716,-0.028734 -0.02251,-0.033337 -0.04278,-0.036824 -0.107082,-0.027011 -0.06163,0.012114 -0.134026,0.047547 -0.07239,0.035433 -0.145973,0.088465 -0.0686,0.05266 -0.121539,0.1141532 -0.07135,0.082883 -0.09331,0.1570689 -0.01929,0.076488 -0.0041,0.1453953 0.01783,0.071209 0.06863,0.1149377 0.02674,0.023015 0.06958,0.027315 0.04285,0.0043 0.07923,-0.010929 0.03601,-0.020204 0.04031,-0.063051 0.007,-0.040545 -0.0086,-0.081904 -0.02674,-0.023015 -0.0401,-0.034522 -0.04011,-0.034523 -0.02741,-0.06549 l 0.02992,-0.034757 q 0.03452,-0.040104 0.07053,-0.060309 0.04099,-0.020576 0.08421,-0.011301 0.03208,0.027618 0.1039,0.084784 0.07449,0.059467 0.109247,0.089386 0.0909,0.078251 0.145865,0.1441817 0.05994,0.065558 0.09077,0.1433 -0.05182,0.076419 -0.111658,0.1459334 -0.06674,0.077535 -0.197116,0.2073584 -0.125397,0.1294508 -0.15992,0.1695553 -0.178842,0.2510181 -0.385301,0.5341199 -0.201485,0.2827296 -0.282037,0.3763068 -0.02762,0.032084 -0.06593,0.054961 -0.03564,0.025179 -0.117033,-0.026267 -0.06417,-0.055236 -0.07703,-0.1268174 -0.0037,-0.082276 -0.0066,-0.1220769 -0.155345,-0.00339 -0.288792,-0.04844 -0.133447,-0.045051 -0.256434,-0.1509202 -0.149724,-0.1288842 -0.19067,-0.3084299 -0.04095,-0.1795458 0.02221,-0.3718814 0.07808,-0.1934521 0.189439,-0.3768851 0.116329,-0.1838052 0.272831,-0.3656123 0.411969,-0.4785805 0.912196,-0.7136139 0.408236,-0.1606126 0.757503,0.06091 0.0909,0.078251 0.153817,0.1836107 0.06522,0.1026859 0.07377,0.2171141 z"
            id="clothing-title-text-g"/>
        </g>
    </defs>
</svg>