<svg id="desktop-viewport-definitions" 
    viewBox="0 0 423.33333 238.125"
    xmlns="http://www.w3.org/2000/svg"
    xmlns:xlink="http://www.w3.org/1999/xlink"
    xmlns:svg="http://www.w3.org/2000/svg">
    <defs>
        <symbol id="copyright-definition">
            <path id="copyright"
                aria-label="Copyright, 2022"
                d="m 9.8896025,-2.3582627 c 5.5199995,0 9.9999995,4.48 9.9999995,10 0,5.5199997 -4.48,9.9999997 -9.9999995,9.9999997 -5.52,0 -10.00000005,-4.48 -10.00000005,-9.9999997 0,-5.52 4.48000005,-10 10.00000005,-10 z m 0,2.00000004 c -4.42,0 -8,3.57999996 -8,7.99999996 0,4.4199997 3.58,7.9999997 8,7.9999997 4.4199995,0 7.9999995,-3.58 7.9999995,-7.9999997 0,-4.42 -3.58,-7.99999996 -7.9999995,-7.99999996 z m 0,2.99999996 c 1.8199995,0 3.4129995,0.973 4.2879995,2.428 l -1.714,1.029 A 3,3 0 1 0 9.8896025,10.641737 2.998,2.998 0 0 0 12.462602,9.1857373 l 1.715,1.0279997 A 4.999,4.999 0 0 1 4.8896025,7.6417373 c 0,-2.76 2.24,-5 5,-5 z"
                transform="matrix(0.26458333,0,0,0.26458333,392.33828,125.74585)"/>
            <path id="cumbercloud"
                aria-label="Visit the Cumberland Cloud for a website like this one!"
                d="m 350.16071,126.19813 c -0.0392,0 -0.0786,0.002 -0.11852,0.004 -0.0962,-1.20772 -1.15715,-2.16244 -2.44783,-2.16244 -1.35347,0 -2.45471,1.05028 -2.45471,2.34143 0,0.007 8e-5,0.0153 2.7e-4,0.023 -0.57719,0.29706 -0.94333,0.87509 -0.94333,1.50609 0,0.94394 0.80506,1.71204 1.79479,1.71204 h 4.1693 c 0.98954,0 1.79484,-0.76802 1.79484,-1.71204 0,-0.94397 -0.8053,-1.71196 -1.79484,-1.71196 z m 0,3.05806 h -4.16929 c -0.77812,0 -1.41125,-0.60393 -1.41125,-1.34611 0,-0.5298 0.32843,-1.01202 0.83659,-1.22867 l 0.12141,-0.0518 -0.01,-0.15812 c -0.002,-0.03 -0.004,-0.06 -0.004,-0.0905 0,-1.08931 0.92915,-1.9756 2.0712,-1.9756 1.14221,0 2.07149,0.88621 2.07117,1.97679 -5.5e-4,0.008 -10e-4,0.0168 -10e-4,0.0252 l -0.002,0.22346 0.23005,-0.0421 c 0.0909,-0.0167 0.18128,-0.025 0.26868,-0.025 0.77823,0 1.41126,0.60381 1.41126,1.34619 0,0.74219 -0.63327,1.34612 -1.41148,1.34612 z"/>
            
        </symbol>
        <symbol id="btn-unpressed-definition">
            <circle id="base-unpressed"
                cx="379.50708"
                cy="29.271889"
                r="6.8449936"/>
            <circle id="back-face-unpressed"
                cx="379.72046"
                cy="29.000069"
                r="4.6292696"/>
            <circle id="front-face-unpressed"
                cx="380.34842"
                cy="28.240227"
                r="4.6292696" />
        </symbol>
        <symbol id="grain-definition">
            <rect id="large-grain"
                width="0.79374999"
                height="146.65721"
                x="0"
                y="46.204941"/>
            <rect id="medium-grain"
                width="0.79374999"
                height="141.54716"
                x="3.087273"
                y="49.071972"/>
            <rect id="small-grain"
                width="0.79374999"
                height="136.85664"
                x="6.174546"
                y="51.549782" />
        </symbol>
        <rect id="vent-definition"
            width="1.9013655"
            height="33.329868"
            y="297.28027"
            ry="2.6290426"/>
        <g id="florish-definition">
            <path id="top-left-screen-florish"
                d="M 36.31243,64.908426 C 36.376268,46.552789 56.410562,31.594543 72.305045,31.72978"/>
            <path id="top-right-screen-florish"
                d="M 307.93692,64.919526 C 307.87312,46.563889 287.83879,31.605643 271.94431,31.74088" />
            <path id="bottom-right-screen-florish"
                d="m 310.06538,172.5246 c -0.0638,18.35563 -20.09813,33.31388 -35.99261,33.17864" />
            <path id="bottom-left-screen-florish"
                d="m 34.739343,173.04779 c 0.0638,18.35563 20.09813,33.31388 35.99261,33.17864" />
        </g>
    </defs>
</svg>