<svg id="about"
   viewBox="0 0 1600 900">
  <defs>
    <filter id="speech-bubble-drop-shadow"
       style="color-interpolation-filters:sRGB;"
       x="-0.02591272"
       y="-0.043917365"
       width="1.0511874"
       height="1.0921571">
      <feFlood id="feFlood23199"
         flood-opacity="0.670588"
         flood-color="rgb(0,0,0)"
         result="flood" />
      <feComposite id="feComposite23201"
         in="flood"
         in2="SourceGraphic"
         operator="in"
         result="composite1" />
      <feGaussianBlur id="feGaussianBlur23203"
         in="composite1"
         stdDeviation="8.41202"
         result="blur" />
      <feOffset id="feOffset23205" 
         dx="-0.513025"
         dy="2"
         result="offset"/>
      <feComposite id="feComposite23207"
         in="SourceGraphic"
         in2="offset"
         operator="over"
         result="composite2" />
    </filter>
  </defs>
  <g id="background">
    <rect id="background-pane"
       style="fill:#edd5b5;fill-opacity:0.999938;stroke:none;stroke-width:1.29625"
       width="1600"
       height="900"
       x="0"
       y="0" />
    <use id="background-dots" 
        href="/assets/svgs/graphics/definitions_about.svg#background-dots-definition"/>
  </g>
  <g id="mouth">
    <path id="lips"
       d="m 810.05007,440.99427 c 7.97957,46.58931 -80.07028,81.20784 -65.02292,126.01648 34.43411,102.53931 184.53695,141.81396 292.69025,140.11632 161.6641,-2.53758 269.3502,-212.9164 430.7151,-223.06951 116.3101,-7.31825 -87.0919,-304.47561 -211.4686,-307.55912 -60.5397,-1.50088 -112.4196,-30.17561 -191.234,-92.948991 -34.1323,-27.185377 -41.62,92.248191 -84.57644,99.916721 -49.25984,8.79381 -116.97362,-122.078164 -130.6418,-73.94248 -28.54753,100.53674 -75.92411,135.53288 -182.96207,197.33127 -56.49465,32.6172 131.48784,69.84119 142.50048,134.13931 z"
       transform="translate(80.0195,23.196557)" />
    <path id="tongue"
       d="m 1263.3057,480.91592 c -17.2725,10.05736 -114.2563,91.27907 -182.852,110.27137 -52.6348,14.57318 -115.4005,24.81642 -163.84452,-0.40222 -31.57578,-16.4375 -64.79674,-51.88847 -61.46838,-87.33059 2.6781,-28.51779 34.82605,-49.85902 61.67704,-59.83202 22.39082,-8.31641 48.56446,-2.33682 71.53163,4.22226 13.93643,3.98003 38.21193,20.74661 38.21193,20.74661 0,0 28.7195,-15.70079 44.5816,-17.44727 64.4291,-7.09386 192.1627,29.77186 192.1627,29.77186 z"
       transform="translate(80.0195,23.196557)" />
    <use id="tongue-dots"
        href="/assets/svgs/graphics/definitions_about.svg#tongue-dots-definition"/>
    <path id="teeth"
        transform="translate(80.0195,23.196557)"
        d="m 992.49999,293.51646 c -0.98147,0.0402 -1.9877,0.0447 -2.96777,0.0868 -13.07211,0.56239 -26.02119,1.29857 -38.8457,2.19985 -11.51377,0.80917 -22.89263,1.79506 -34.20412,2.8634 a 67.891006,67.891006 0 0 0 -5.04672,4.23696 59.173998,60.549334 0 0 0 -5.43636,-3.18329 c -10.31772,1.05127 -20.60477,2.14101 -30.74953,3.39617 -12.31866,1.52413 -24.50899,3.19474 -36.56936,5.00279 -12.06037,1.80809 -23.99102,3.75336 -35.78955,5.82705 -4.64238,0.81595 -9.16925,1.74062 -13.77072,2.5957 a 52.758636,52.758636 0 0 0 -18.19217,39.64667 52.758636,52.758636 0 0 0 52.75853,52.75855 52.758636,52.758636 0 0 0 22.51387,-5.06015 59.173998,60.549334 0 0 0 32.12518,9.7441 59.173998,60.549334 0 0 0 34.36998,-11.30369 67.891006,67.891006 0 0 0 45.56001,17.5922 67.891006,67.891006 0 0 0 44.70634,-16.85687 68.391349,68.391349 0 0 0 47.1501,18.88929 68.391349,68.391349 0 0 0 50.9085,-22.77276 61.317046,61.317046 0 0 0 40.8699,15.64918 61.317046,61.317046 0 0 0 41.8682,-16.53027 59.173998,60.549334 0 0 0 46.0184,22.50561 59.173998,60.549334 0 0 0 35.9704,-12.51241 59.173998,60.549334 0 0 0 45.283,21.63123 59.173998,60.549334 0 0 0 40.2347,-16.15147 49.318973,49.318973 0 0 0 34.8496,14.46993 49.318973,49.318973 0 0 0 49.319,-49.31896 49.318973,49.318973 0 0 0 -23.9267,-42.10389 c -5.9034,-1.45309 -11.805,-2.90214 -17.677,-4.27725 -3.9311,-0.9206 -7.8353,-1.77531 -11.7522,-2.66134 a 49.318973,49.318973 0 0 0 -21.2809,6.74481 59.173998,60.549334 0 0 0 -12.3192,-14.00638 c -0.022,-0.004 -0.044,-0.01 -0.066,-0.014 -7.5162,-1.52874 -15.0053,-2.99471 -22.4674,-4.3987 -11.4859,-2.16104 -22.8492,-4.04672 -34.2056,-5.91902 a 59.173998,60.549334 0 0 0 -16.6523,9.02997 59.173998,60.549334 0 0 0 -17.2366,-14.18469 c -6.7069,-0.95091 -13.4731,-2.02671 -20.1327,-2.87991 -7.54,-0.96602 -14.9651,-1.70188 -22.4441,-2.54508 a 59.173998,60.549334 0 0 0 -25.2925,13.76352 61.317046,61.317046 0 0 0 -24.5897,-18.56528 c -4.3894,-0.34507 -8.8415,-0.80762 -13.2085,-1.11157 -8.7234,-0.60714 -17.3199,-0.98761 -25.9534,-1.43401 a 61.317046,61.317046 0 0 0 -25.2367,13.50822 68.391349,68.391349 0 0 0 -20.0277,-15.16859 c -3.8319,-0.0785 -7.7264,-0.26062 -11.5394,-0.3085 -13.5565,-0.17032 -26.9936,-0.14838 -40.3097,0.0568 -3.4089,0.0525 -6.7402,0.21973 -10.1332,0.29612 a 68.391349,68.391349 0 0 0 -14.3051,9.75082 67.891006,67.891006 0 0 0 -12.17701,-8.97776 z" />
    <g id="shine"
       transform="translate(80.0195,23.196557)"
       aria-hidden="true">
      <path id="shine-bottom-lip"
         d="m 881.39594,665.0026 c 5.98827,13.15449 -107.99546,-50.11504 -106.45267,-77.06291 1.52888,-26.70484 65.73731,-33.85998 74.96747,-28.62262 0,0 -23.34531,18.38585 -23.36319,31.44356 -0.0421,30.76831 42.03857,46.10254 54.84839,74.24197 z"/>
      <path id="shine-upper-lip"
         d="m 1259.9568,177.31364 c 25.3236,1.77237 26.5057,6.18395 43.885,13.25466 41.8392,17.88965 83.8964,62.11951 83.8964,62.11951 -27.913,-22.47074 -31.9001,-27.13082 -49.6095,-34.63922 -9.2689,-3.92983 -13.9403,-14.63701 -22.6038,-19.25599 -12.2292,-6.52012 -27.8677,1.39144 -40.1953,-12.07816 -8.7049,-9.51137 -15.3728,-9.4008 -15.3728,-9.4008 z" />
      <path id="shine-philtrum"
         d="m 858.601,100.15936 c -10.16164,3.15577 -9.62509,30.43547 -9.62509,30.43547 8.44122,5.88968 16.47333,-30.600747 28.46724,-20.04129 4.69335,4.13203 -12.87041,-12.248747 -18.84215,-10.39418 z" />
    </g>
  </g>
  <g id="about-title"
     transform="translate(-29.050203,54.989042)"
     aria-level="1"
     role="heading">
    <g role="presentation">
        <path id="a-spotlight"
            style="fill:#880d4e;stroke:none;stroke-width:0.999999px;"
            d="m 617.79102,361.07031 -35.87305,97.04492 56.71875,24.80665 -63.08789,245.55273 C 1378.8165,1328.1579 2168.9454,1269.7089 2964.8457,1500.3555 2223.7624,1128.2832 1046.2622,951.08053 741.5957,384.13867 Z"
            transform="scale(0.26458333)"/>
        <path id="b-spotlight"
            style="fill:#ad1356;stroke:none;stroke-width:0.264583px"
            d="M 225.04906,196.01652 C 395.26694,323.05397 597.00378,333.60094 784.44875,396.96905 602.10639,286.71624 341.60263,211.94618 237.42167,66.210624 l -10.25753,28.001102 z"/>
        <path id="o-spotlight"
            style="fill:#c2185a;stroke:none;stroke-width:0.264583px"
            d="M 784.44875,396.96905 C 622.70555,329.27222 453.35206,307.62532 299.22406,193.84888 l 2.04192,-93.18766 23.66473,-4.697841 C 455.5936,256.34476 631.27607,296.63383 784.44875,396.96905 Z" />
        <path id="u-spotlight"
            style="fill:#d81b5f;stroke:none;stroke-width:0.999999px"
            transform="scale(0.26458333)"
            d="m 1371.3438,351.07617 -23.0313,371.83008 C 1866.187,1084.4983 2425.8433,1241.9775 2964.8457,1500.3555 2422.0219,1165.3389 1780.2533,976.17828 1543.8594,368.21875 l -24.416,89.67187 c -57.0367,19.14349 -106.6696,-45.29552 -148.0996,-106.81445 z"/>
        <path id="t-spotlight"
            style="fill:#ec4079;stroke:none;stroke-width:0.999999px"
            d="m 1718.1348,295.59375 -31.5059,16.18945 -16.209,94.71875 -5.6133,-7.27343 -77.0507,18.11132 72.039,51.24414 -44.2969,258.85352 c 402.3858,343.8185 899.5224,515.3563 1349.3477,772.918 C 2488.2788,1160.7596 1903.6378,869.83473 1718.1348,295.59375 Z"
            transform="scale(0.26458333)" />
    </g>
    <use id="about-text" 
        href="/assets/svgs/graphics/definitions_about.svg#about-text-definition"
        aria-label="About Sunshine Daze"
        role="img"/>
  </g>
  <g id="speech-bubble"
     style="fill:#ec407a;stroke:#000000;stroke-width:0.79375;filter:url(#speech-bubble-drop-shadow)"
     transform="translate(-8.1477027,-9.5057268)">
    <ellipse id="medium-bubble"
       style="fill:#ffeaeb;stroke:#000000;stroke-width:0.264583"
       cx="692.677"
       cy="542.97083"
       rx="54.677071"
       ry="53.33606"
       inkscape:label="medium-bubble" />
    <ellipse id="small-bubble"
       style="fill:#ffeaeb;stroke:#000000;stroke-width:0.264583"
       cx="817.10889"
       cy="513.75494"
       rx="25.984945"
       ry="23.493261" />
    <rect id="main-bubble"
       style="fill:#ffeaeb;fill-opacity:1;stroke:#000000;stroke-width:0.264583"
       width="579.57111"
       height="419.38589"
       x="34.600048"
       y="460.58768"
       ry="209.69295"/>
  </g>
</svg>
