<?xml version="1.0" encoding="UTF-8" standalone="no"?>
<!-- Generator: Adobe Illustrator 19.0.0, SVG Export Plug-In . SVG Version: 6.00 Build 0)  -->

<svg
   version="1.1"
   id="Layer_1"
   x="0px"
   y="0px"
   viewBox="0 0 1024 1024"
   xml:space="preserve"
   sodipodi:docname="cover.svg"
   width="1024"
   height="1024"
   inkscape:version="1.1.2 (1:1.1+202202050950+0a00cf5339)"
   xmlns:inkscape="http://www.inkscape.org/namespaces/inkscape"
   xmlns:sodipodi="http://sodipodi.sourceforge.net/DTD/sodipodi-0.dtd"
   xmlns="http://www.w3.org/2000/svg"
   xmlns:svg="http://www.w3.org/2000/svg"><defs
   id="defs79" /><sodipodi:namedview
   id="namedview77"
   pagecolor="#ffffff"
   bordercolor="#666666"
   borderopacity="1.0"
   inkscape:pageshadow="2"
   inkscape:pageopacity="0.0"
   inkscape:pagecheckerboard="0"
   showgrid="false"
   inkscape:zoom="0.37564976"
   inkscape:cx="362.03936"
   inkscape:cy="335.41882"
   inkscape:window-width="1366"
   inkscape:window-height="719"
   inkscape:window-x="0"
   inkscape:window-y="25"
   inkscape:window-maximized="1"
   inkscape:current-layer="Layer_1" />





<g
   id="g918"
   transform="matrix(2,0,0,2,2.5304793,0.9764012)"><circle
     style="fill:#f5be3c"
     cx="255.99899"
     cy="255.99899"
     r="123.586"
     id="circle2" /><circle
     style="fill:#d2a53c"
     cx="255.99899"
     cy="255.99899"
     r="88.275002"
     id="circle4" /><circle
     style="fill:#c3bc41"
     cx="255.99899"
     cy="255.99899"
     r="52.965"
     id="circle6" /><g
     id="g24">
	<path
   style="fill:#ffe650"
   d="m 256,167.726 c -2.185,0 -4.371,-0.806 -6.078,-2.422 -18.306,-17.37 -29.232,-47.814 -29.232,-81.44 0,-33.626 10.926,-64.068 29.232,-81.44 3.414,-3.233 8.741,-3.233 12.156,0 18.306,17.37 29.232,47.814 29.232,81.44 0,33.626 -10.926,64.068 -29.232,81.44 -1.707,1.616 -3.893,2.422 -6.078,2.422 z"
   id="path8" />
	<path
   style="fill:#ffe650"
   d="m 256,512.001 c -2.185,0 -4.371,-0.806 -6.078,-2.422 -18.306,-17.37 -29.232,-47.814 -29.232,-81.44 0,-33.626 10.926,-64.069 29.232,-81.44 3.414,-3.233 8.741,-3.233 12.156,0 18.306,17.37 29.232,47.814 29.232,81.44 0,33.626 -10.926,64.069 -29.232,81.44 -1.707,1.615 -3.893,2.422 -6.078,2.422 z"
   id="path10" />
	<path
   style="fill:#ffe650"
   d="m 83.863,291.312 c -33.625,0 -64.068,-10.926 -81.44,-29.232 -3.229,-3.41 -3.229,-8.746 0,-12.156 17.37,-18.306 47.814,-29.232 81.44,-29.232 33.626,0 64.068,10.926 81.44,29.232 3.229,3.41 3.229,8.746 0,12.156 -17.372,18.306 -47.815,29.232 -81.44,29.232 z"
   id="path12" />
	<path
   style="fill:#ffe650"
   d="m 428.137,291.312 c -33.625,0 -64.069,-10.926 -81.44,-29.232 -3.229,-3.41 -3.229,-8.746 0,-12.156 17.37,-18.306 47.814,-29.232 81.44,-29.232 33.626,0 64.069,10.926 81.44,29.232 3.229,3.41 3.229,8.746 0,12.156 -17.371,18.306 -47.814,29.232 -81.44,29.232 z"
   id="path14" />
	<path
   style="fill:#ffe650"
   d="m 185.811,196.187 c -24.819,0 -53.267,-13.707 -76.495,-36.94 -23.785,-23.776 -37.582,-53.034 -36.915,-78.254 0.125,-4.694 3.896,-8.466 8.59,-8.59 25.275,-0.694 54.478,13.133 78.254,36.913 23.785,23.776 37.582,53.035 36.913,78.254 -0.125,4.694 -3.896,8.466 -8.59,8.59 -0.58,0.018 -1.171,0.027 -1.757,0.027 z"
   id="path16" />
	<path
   style="fill:#ffe650"
   d="m 429.25,439.626 c -24.814,0 -53.267,-13.703 -76.495,-36.936 -23.785,-23.785 -37.582,-53.038 -36.914,-78.258 0.125,-4.694 3.896,-8.466 8.59,-8.59 25.043,-0.733 54.474,13.129 78.258,36.913 23.78,23.78 37.578,53.034 36.909,78.254 -0.125,4.694 -3.896,8.466 -8.59,8.59 -0.582,0.018 -1.172,0.027 -1.758,0.027 z"
   id="path18" />
	<path
   style="fill:#ffe650"
   d="m 82.751,439.626 c -0.586,0 -1.176,-0.009 -1.759,-0.025 -4.694,-0.125 -8.466,-3.896 -8.59,-8.59 -0.668,-25.219 13.129,-54.478 36.913,-78.254 23.771,-23.78 53.038,-37.625 78.254,-36.914 4.694,0.125 8.466,3.896 8.59,8.59 0.668,25.219 -13.129,54.478 -36.913,78.254 -23.224,23.232 -51.681,36.939 -76.495,36.939 z"
   id="path20" />
	<path
   style="fill:#ffe650"
   d="m 326.189,196.187 c -0.59,0 -1.176,-0.009 -1.759,-0.025 -4.694,-0.125 -8.466,-3.896 -8.59,-8.59 -0.668,-25.219 13.129,-54.474 36.913,-78.258 23.776,-23.78 52.961,-37.728 78.254,-36.909 4.694,0.125 8.466,3.896 8.59,8.59 0.668,25.219 -13.129,54.474 -36.909,78.254 -23.231,23.231 -51.683,36.938 -76.499,36.938 z"
   id="path22" />
</g><g
     id="g42">
	<path
   style="fill:#ffd741"
   d="m 218.836,175.118 c -1.052,0 -2.121,-0.185 -3.159,-0.586 -23.561,-9.043 -45.306,-32.987 -58.172,-64.052 -12.871,-31.069 -14.426,-63.378 -4.16,-86.426 1.906,-4.293 6.828,-6.358 11.229,-4.651 23.561,9.043 45.306,32.987 58.172,64.052 12.871,31.069 14.426,63.378 4.16,86.426 -1.458,3.276 -4.678,5.237 -8.07,5.237 z"
   id="path26" />
	<path
   style="fill:#ffd741"
   d="m 350.586,493.186 c -1.052,0 -2.121,-0.185 -3.159,-0.586 -23.561,-9.043 -45.306,-32.987 -58.172,-64.052 -12.871,-31.069 -14.426,-63.38 -4.16,-86.426 1.906,-4.293 6.831,-6.358 11.229,-4.651 23.561,9.043 45.306,32.987 58.172,64.052 12.871,31.069 14.426,63.38 4.16,86.426 -1.458,3.276 -4.678,5.237 -8.07,5.237 z"
   id="path28" />
	<path
   style="fill:#ffd741"
   d="m 58.816,365.385 c -12.78,0 -24.66,-2.229 -34.763,-6.729 -4.289,-1.909 -6.332,-6.845 -4.651,-11.229 9.043,-23.561 32.987,-45.306 64.052,-58.172 31.064,-12.875 63.378,-14.422 86.426,-4.16 4.289,1.909 6.332,6.845 4.651,11.229 -9.043,23.561 -32.987,45.306 -64.052,58.172 -17.447,7.229 -35.292,10.889 -51.663,10.889 z"
   id="path30" />
	<path
   style="fill:#ffd741"
   d="m 376.884,233.635 c -12.78,0 -24.66,-2.229 -34.763,-6.729 -4.289,-1.909 -6.332,-6.845 -4.651,-11.229 9.043,-23.561 32.987,-45.306 64.052,-58.172 31.064,-12.871 63.375,-14.426 86.426,-4.16 4.289,1.909 6.332,6.845 4.651,11.229 -9.043,23.561 -32.987,45.306 -64.052,58.172 -17.448,7.23 -35.293,10.889 -51.663,10.889 z"
   id="path32" />
	<path
   style="fill:#ffd741"
   d="m 135.117,233.635 c -16.371,0 -34.216,-3.659 -51.663,-10.888 -31.064,-12.866 -55.009,-34.612 -64.052,-58.172 -1.681,-4.384 0.362,-9.319 4.651,-11.229 23.043,-10.263 55.358,-8.707 86.426,4.16 31.064,12.866 55.009,34.612 64.052,58.172 1.681,4.384 -0.362,9.319 -4.651,11.229 -10.103,4.5 -21.987,6.728 -34.763,6.728 z"
   id="path34" />
	<path
   style="fill:#ffd741"
   d="m 453.185,365.385 c -16.371,0 -34.216,-3.659 -51.663,-10.888 -31.064,-12.866 -55.009,-34.612 -64.052,-58.172 -1.681,-4.384 0.362,-9.319 4.651,-11.229 23.052,-10.263 55.362,-8.703 86.426,4.16 31.064,12.866 55.009,34.612 64.052,58.172 1.681,4.384 -0.362,9.319 -4.651,11.229 -10.104,4.499 -21.988,6.728 -34.763,6.728 z"
   id="path36" />
	<path
   style="fill:#ffd741"
   d="m 161.414,493.186 c -3.392,0 -6.612,-1.961 -8.069,-5.237 -10.268,-23.048 -8.712,-55.358 4.16,-86.426 12.866,-31.064 34.612,-55.009 58.172,-64.052 4.38,-1.685 9.319,0.358 11.229,4.651 10.268,23.048 8.712,55.358 -4.16,86.426 -12.866,31.064 -34.612,55.009 -58.172,64.052 -1.039,0.396 -2.108,0.586 -3.16,0.586 z"
   id="path38" />
	<path
   style="fill:#ffd741"
   d="m 293.164,175.118 c -3.392,0 -6.612,-1.961 -8.069,-5.237 -10.268,-23.048 -8.712,-55.358 4.16,-86.426 12.866,-31.064 34.612,-55.009 58.172,-64.052 4.384,-1.689 9.314,0.358 11.229,4.651 10.268,23.048 8.712,55.358 -4.16,86.426 -12.866,31.064 -34.612,55.009 -58.172,64.052 -1.039,0.396 -2.108,0.586 -3.16,0.586 z"
   id="path40" />
</g><circle
     style="fill:#b4d246"
     cx="255.99899"
     cy="255.99899"
     r="35.310001"
     id="circle44" /></g>
<g
   id="g46">
</g>
<g
   id="g48">
</g>
<g
   id="g50">
</g>
<g
   id="g52">
</g>
<g
   id="g54">
</g>
<g
   id="g56">
</g>
<g
   id="g58">
</g>
<g
   id="g60">
</g>
<g
   id="g62">
</g>
<g
   id="g64">
</g>
<g
   id="g66">
</g>
<g
   id="g68">
</g>
<g
   id="g70">
</g>
<g
   id="g72">
</g>
<g
   id="g74">
</g>
</svg>
